<svg id="Layer_1" data-name="Layer 1" xmlns="http://www.w3.org/2000/svg" width="75.7853in" height="19.3472in" viewBox="0 0 5456.5404 1393">
  <path d="M1441.5957,48.5045H296.6211v1350h1392v-1350Zm-209.6828,21.6h291.6v20.88h-291.6Zm-758.4,0h291.6v20.88h-291.6Zm-137.6119,1097.68h-18.72v-805.68l18.72-.3242Zm287.6654-305.28c-90.2835,0-163.4727-64.4709-163.4727-144s73.1892-144,163.4727-144,163.4728,64.471,163.4728,144S713.85,862.5045,623.5665,862.5045Zm738.1092,0c-90.2836,0-163.4728-64.4709-163.4728-144s73.1892-144,163.4728-144,163.4727,64.471,163.4727,144S1451.9592,862.5045,1361.6757,862.5045Zm306.2254,305.28h-18.72v-805.68l18.72-.3242Z" transform="translate(-296.1211 -23.2826)" style="fill: none;stroke: #231f20;stroke-miterlimit: 10"/>
  <path d="M5415.8772,1248.8744h48.7993v-288h-48.7993v-470.4h48.7993v-288h-48.7993V23.7826h-1157.08v1392h1157.08ZM4408.1167,63.6225l.0017-18.72h864.2368v18.72Zm1.17,1330-1.168-18.72h864.2368v18.72Z" transform="translate(-296.1211 -23.2826)" style="fill: none;stroke: #231f20;stroke-miterlimit: 10"/>
  <polygon points="5316.04 137.843 5244.625 137.843 5244.625 10.843 5208.625 10.843 5208.625 730.843 5244.625 730.843 5244.625 603.843 5316.04 603.843 5316.04 137.843" style="fill: none;stroke: #231f20;stroke-miterlimit: 10"/>
  <path d="M367.94,1291.0576l19.2241,51.4082H375.4277l-3.8881-11.4482H352.3154l-4.0317,11.4482h-11.376l19.44-51.4082Zm.6479,31.5362-6.48-18.8643h-.144l-6.6958,18.8643Z" transform="translate(-296.1211 -23.2826)" style="fill: #ee2324"/>
  <path d="M5375.9258,108.9854a26.5046,26.5046,0,0,1-1.584,9.2519,20.1091,20.1091,0,0,1-4.752,7.416,21.9583,21.9583,0,0,1-7.92,4.896,32.0553,32.0553,0,0,1-11.16,1.7637,35.6143,35.6143,0,0,1-10.3682-1.44,22.8283,22.8283,0,0,1-8.208-4.3559,20.4083,20.4083,0,0,1-5.4356-7.272,24.5935,24.5935,0,0,1-1.98-10.26V86.8091h51.4082Zm-41.9043-.792a14.5194,14.5194,0,0,0,.792,4.7519,10.4623,10.4623,0,0,0,2.6279,4.104,13.2193,13.2193,0,0,0,4.7881,2.88,21.0675,21.0675,0,0,0,7.2,1.08,29.9484,29.9484,0,0,0,7.02-.7564,14.0092,14.0092,0,0,0,5.3643-2.4839,11.0232,11.0232,0,0,0,3.42-4.5717,18.2584,18.2584,0,0,0,1.1885-7.02V98.1133h-32.4Z" transform="translate(-296.1211 -23.2826)" style="fill: #ee2324"/>
  <path d="M2810.2245,98.6923V26.0229h-864V98.6923H1802.3111V362.8245h-.3952l-72.5388-.0424v804.2824h72.934v238.4278h1152V98.6923ZM1784.5066,988.7567h-20.88v-468h20.88Zm830.3359-908.065h-468v-20.88h468Z" transform="translate(-296.1211 -23.2826)" style="fill: none;stroke: #231f20;stroke-miterlimit: 10"/>
  <path d="M1871.4268,1299.6318a31.9759,31.9759,0,0,1,6.6962.6485,14.46,14.46,0,0,1,5.1841,2.124,9.8881,9.8881,0,0,1,3.3477,3.9238,13.7905,13.7905,0,0,1,1.188,6.0479,11.2683,11.2683,0,0,1-1.7637,6.48,12.8252,12.8252,0,0,1-5.22,4.2481,12.361,12.361,0,0,1,7.0923,4.7871,15.7155,15.7155,0,0,1,.8276,14.9766,13.1131,13.1131,0,0,1-4.0679,4.6435,17.9855,17.9855,0,0,1-5.832,2.6641,26.28,26.28,0,0,1-6.7319.8642h-24.9121v-51.4082Zm-1.44,20.8086a8.1217,8.1217,0,0,0,4.9683-1.44q1.9439-1.44,1.9438-4.68a5.978,5.978,0,0,0-.6479-2.9521,4.7926,4.7926,0,0,0-1.7281-1.8,7.2887,7.2887,0,0,0-2.4838-.9,16.483,16.483,0,0,0-2.9161-.252h-10.5839V1320.44Zm.648,21.8155a15.03,15.03,0,0,0,3.1679-.3243,7.7534,7.7534,0,0,0,2.6641-1.08,5.4387,5.4387,0,0,0,1.8359-2.0518,7.062,7.062,0,0,0,.6841-3.3115q0-3.96-2.2319-5.6524a9.533,9.533,0,0,0-5.9038-1.6923h-12.312v14.1123Z" transform="translate(-296.1211 -23.2826)" style="fill: #ee2324"/>
  <path d="M2994.0565,98.6923v1306.8h1152V1167.0645h72.934V362.7821l-72.5388.0424h-.3952V98.6923H4002.1428V26.0229h-864V98.6923ZM4163.8607,520.7567h20.88v468h-20.88ZM3333.5247,59.8118h468v20.88h-468Z" transform="translate(-296.1211 -23.2826)" style="fill: none;stroke: #231f20;stroke-miterlimit: 10"/>
  <path d="M4091.8789,1313.3477a11.3848,11.3848,0,0,0-2.52-2.8438,11.8,11.8,0,0,0-7.416-2.5918,13.2113,13.2113,0,0,0-6.4805,1.4756,12.2386,12.2386,0,0,0-4.32,3.96,17.3494,17.3494,0,0,0-2.4121,5.6523,28.1433,28.1433,0,0,0-.7559,6.5518,26.1666,26.1666,0,0,0,.7559,6.3,17.007,17.007,0,0,0,2.4121,5.5088,12.3511,12.3511,0,0,0,4.32,3.9238,13.1893,13.1893,0,0,0,6.4805,1.4756,10.4565,10.4565,0,0,0,8.1-3.168,14.6418,14.6418,0,0,0,3.5634-8.3516h10.9444a26.13,26.13,0,0,1-2.2324,8.7119,20.8775,20.8775,0,0,1-4.752,6.6241,20.2115,20.2115,0,0,1-6.9111,4.1758,25.3294,25.3294,0,0,1-8.7119,1.44,26.3516,26.3516,0,0,1-10.62-2.0528,22.7343,22.7343,0,0,1-7.956-5.6513,25.026,25.026,0,0,1-4.9688-8.46,31.07,31.07,0,0,1-1.7275-10.4765,32.14,32.14,0,0,1,1.7275-10.6914,25.7006,25.7006,0,0,1,4.9688-8.6045,22.7148,22.7148,0,0,1,7.956-5.76,27.5689,27.5689,0,0,1,18.6475-.8643,21.7824,21.7824,0,0,1,6.7686,3.5645,19.2783,19.2783,0,0,1,4.9316,5.7959,20.7378,20.7378,0,0,1,2.4482,7.92h-10.9443A9.2409,9.2409,0,0,0,4091.8789,1313.3477Z" transform="translate(-296.1211 -23.2826)" style="fill: #ee2324"/>
  <path d="M5544.415,375.2139V368.877h28.08v6.3369h-10.2724v27.9355h-7.5362V375.2139Z" transform="translate(-296.1211 -23.2826)" style="fill: #ee2324"/>
  <polygon points="5456.04 137.843 5384.625 137.843 5384.625 10.843 5348.625 10.843 5348.625 730.843 5384.625 730.843 5384.625 603.843 5456.04 603.843 5456.04 137.843" style="fill: none;stroke: #231f20;stroke-miterlimit: 10"/>
  <path d="M5684.415,375.2139V368.877h28.08v6.3369h-10.2724v27.9355h-7.5362V375.2139Z" transform="translate(-296.1211 -23.2826)" style="fill: #ee2324"/>
  <polygon points="5348.625 1223.843 5420.04 1223.843 5420.04 1350.843 5456.04 1350.843 5456.04 630.843 5420.04 630.843 5420.04 757.843 5348.625 757.843 5348.625 1223.843" style="fill: none;stroke: #231f20;stroke-miterlimit: 10"/>
  <path d="M5712.4922,1033.0371v6.3369h-28.08v-6.3369h10.2725v-27.9355h7.5361v27.9355Z" transform="translate(-296.1211 -23.2826)" style="fill: #ee2324"/>
  <polygon points="5208.625 1223.843 5280.04 1223.843 5280.04 1350.843 5316.04 1350.843 5316.04 630.843 5280.04 630.843 5280.04 757.843 5208.625 757.843 5208.625 1223.843" style="fill: none;stroke: #231f20;stroke-miterlimit: 10"/>
  <path d="M5572.4922,1033.0371v6.3369h-28.08v-6.3369h10.2725v-27.9355h7.5361v27.9355Z" transform="translate(-296.1211 -23.2826)" style="fill: #ee2324"/>
</svg>
