  0
SECTION
  2
HEADER
  9
$ACADVER
  1
AC1024
  9
$ACADMAINTVER
 70
     6
  9
$DWGCODEPAGE
  3
UNDEFINED
  9
$INSBASE
 10
0.0
 20
0.0
 30
0.0
  9
$EXTMIN
 10
1.000000000000000E+20
 20
1.000000000000000E+20
 30
1.000000000000000E+20
  9
$EXTMAX
 10
-1.000000000000000E+20
 20
-1.000000000000000E+20
 30
-1.000000000000000E+20
  9
$LIMMIN
 10
0.0
 20
0.0
  9
$LIMMAX
 10
12.0
 20
9.0
  9
$ORTHOMODE
 70
     0
  9
$REGENMODE
 70
     1
  9
$FILLMODE
 70
     1
  9
$QTEXTMODE
 70
     0
  9
$MIRRTEXT
 70
     1
  9
$LTSCALE
 40
1.0
  9
$ATTMODE
 70
     1
  9
$TEXTSIZE
 40
0.2
  9
$TRACEWID
 40
0.05
  9
$TEXTSTYLE
  7
Standard
  9
$CLAYER
  8
0
  9
$CELTYPE
  6
ByLayer
  9
$CECOLOR
 62
   256
  9
$CELTSCALE
 40
1.0
  9
$DISPSILH
 70
     0
  9
$DIMSCALE
 40
1.0
  9
$DIMASZ
 40
0.18
  9
$DIMEXO
 40
0.0625
  9
$DIMDLI
 40
0.38
  9
$DIMRND
 40
0.0
  9
$DIMDLE
 40
0.0
  9
$DIMEXE
 40
0.18
  9
$DIMTP
 40
0.0
  9
$DIMTM
 40
0.0
  9
$DIMTXT
 40
0.18
  9
$DIMCEN
 40
0.09
  9
$DIMTSZ
 40
0.0
  9
$DIMTOL
 70
     0
  9
$DIMLIM
 70
     0
  9
$DIMTIH
 70
     1
  9
$DIMTOH
 70
     1
  9
$DIMSE1
 70
     0
  9
$DIMSE2
 70
     0
  9
$DIMTAD
 70
     0
  9
$DIMZIN
 70
     0
  9
$DIMBLK
  1

  9
$DIMASO
 70
     1
  9
$DIMSHO
 70
     1
  9
$DIMPOST
  1

  9
$DIMAPOST
  1

  9
$DIMALT
 70
     0
  9
$DIMALTD
 70
     2
  9
$DIMALTF
 40
25.4
  9
$DIMLFAC
 40
1.0
  9
$DIMTOFL
 70
     0
  9
$DIMTVP
 40
0.0
  9
$DIMTIX
 70
     0
  9
$DIMSOXD
 70
     0
  9
$DIMSAH
 70
     0
  9
$DIMBLK1
  1

  9
$DIMBLK2
  1

  9
$DIMSTYLE
  2
Standard
  9
$DIMCLRD
 70
     0
  9
$DIMCLRE
 70
     0
  9
$DIMCLRT
 70
     0
  9
$DIMTFAC
 40
1.0
  9
$DIMGAP
 40
0.09
  9
$DIMJUST
 70
     0
  9
$DIMSD1
 70
     0
  9
$DIMSD2
 70
     0
  9
$DIMTOLJ
 70
     1
  9
$DIMTZIN
 70
     0
  9
$DIMALTZ
 70
     0
  9
$DIMALTTZ
 70
     0
  9
$DIMUPT
 70
     0
  9
$DIMDEC
 70
     4
  9
$DIMTDEC
 70
     4
  9
$DIMALTU
 70
     2
  9
$DIMALTTD
 70
     2
  9
$DIMTXSTY
  7
Standard
  9
$DIMAUNIT
 70
     0
  9
$DIMADEC
 70
     0
  9
$DIMALTRND
 40
0.0
  9
$DIMAZIN
 70
     0
  9
$DIMDSEP
 70
    46
  9
$DIMATFIT
 70
     3
  9
$DIMFRAC
 70
     0
  9
$DIMLDRBLK
  1

  9
$DIMLUNIT
 70
     2
  9
$DIMLWD
 70
    -2
  9
$DIMLWE
 70
    -2
  9
$DIMTMOVE
 70
     0
  9
$DIMFXL
 40
1.0
  9
$DIMFXLON
 70
     0
  9
$DIMJOGANG
 40
0.7853981633974483
  9
$DIMTFILL
 70
     0
  9
$DIMTFILLCLR
 70
     0
  9
$DIMARCSYM
 70
     0
  9
$DIMLTYPE
  6

  9
$DIMLTEX1
  6

  9
$DIMLTEX2
  6

  9
$DIMTXTDIRECTION
 70
     0
  9
$LUNITS
 70
     2
  9
$LUPREC
 70
     4
  9
$SKETCHINC
 40
0.1
  9
$FILLETRAD
 40
0.5
  9
$AUNITS
 70
     0
  9
$AUPREC
 70
     0
  9
$MENU
  1
.
  9
$ELEVATION
 40
0.0
  9
$PELEVATION
 40
0.0
  9
$THICKNESS
 40
0.0
  9
$LIMCHECK
 70
     0
  9
$CHAMFERA
 40
0.5
  9
$CHAMFERB
 40
0.5
  9
$CHAMFERC
 40
1.0
  9
$CHAMFERD
 40
0.0
  9
$SKPOLY
 70
     0
  9
$TDCREATE
 40
2458949.941597211
  9
$TDUCREATE
 40
2458950.149930555
  9
$TDUPDATE
 40
2458949.941597211
  9
$TDUUPDATE
 40
2458950.149930555
  9
$TDINDWG
 40
0.0000000116
  9
$TDUSRTIMER
 40
0.0000000116
  9
$USRTIMER
 70
     1
  9
$ANGBASE
 50
0.0
  9
$ANGDIR
 70
     0
  9
$PDMODE
 70
     0
  9
$PDSIZE
 40
0.0
  9
$PLINEWID
 40
0.0
  9
$SPLFRAME
 70
     0
  9
$SPLINETYPE
 70
     6
  9
$SPLINESEGS
 70
     8
  9
$HANDSEED
  5
16D
  9
$SURFTAB1
 70
     6
  9
$SURFTAB2
 70
     6
  9
$SURFTYPE
 70
     6
  9
$SURFU
 70
     6
  9
$SURFV
 70
     6
  9
$UCSBASE
  2

  9
$UCSNAME
  2

  9
$UCSORG
 10
0.0
 20
0.0
 30
0.0
  9
$UCSXDIR
 10
1.0
 20
0.0
 30
0.0
  9
$UCSYDIR
 10
0.0
 20
1.0
 30
0.0
  9
$UCSORTHOREF
  2

  9
$UCSORTHOVIEW
 70
     0
  9
$UCSORGTOP
 10
0.0
 20
0.0
 30
0.0
  9
$UCSORGBOTTOM
 10
0.0
 20
0.0
 30
0.0
  9
$UCSORGLEFT
 10
0.0
 20
0.0
 30
0.0
  9
$UCSORGRIGHT
 10
0.0
 20
0.0
 30
0.0
  9
$UCSORGFRONT
 10
0.0
 20
0.0
 30
0.0
  9
$UCSORGBACK
 10
0.0
 20
0.0
 30
0.0
  9
$PUCSBASE
  2

  9
$PUCSNAME
  2

  9
$PUCSORG
 10
0.0
 20
0.0
 30
0.0
  9
$PUCSXDIR
 10
1.0
 20
0.0
 30
0.0
  9
$PUCSYDIR
 10
0.0
 20
1.0
 30
0.0
  9
$PUCSORTHOREF
  2

  9
$PUCSORTHOVIEW
 70
     0
  9
$PUCSORGTOP
 10
0.0
 20
0.0
 30
0.0
  9
$PUCSORGBOTTOM
 10
0.0
 20
0.0
 30
0.0
  9
$PUCSORGLEFT
 10
0.0
 20
0.0
 30
0.0
  9
$PUCSORGRIGHT
 10
0.0
 20
0.0
 30
0.0
  9
$PUCSORGFRONT
 10
0.0
 20
0.0
 30
0.0
  9
$PUCSORGBACK
 10
0.0
 20
0.0
 30
0.0
  9
$USERI1
 70
     0
  9
$USERI2
 70
     0
  9
$USERI3
 70
     0
  9
$USERI4
 70
     0
  9
$USERI5
 70
     0
  9
$USERR1
 40
0.0
  9
$USERR2
 40
0.0
  9
$USERR3
 40
0.0
  9
$USERR4
 40
0.0
  9
$USERR5
 40
0.0
  9
$WORLDVIEW
 70
     1
  9
$SHADEDGE
 70
     3
  9
$SHADEDIF
 70
    70
  9
$TILEMODE
 70
     1
  9
$MAXACTVP
 70
    64
  9
$PINSBASE
 10
0.0
 20
0.0
 30
0.0
  9
$PLIMCHECK
 70
     0
  9
$PEXTMIN
 10
1.000000000000000E+20
 20
1.000000000000000E+20
 30
1.000000000000000E+20
  9
$PEXTMAX
 10
-1.000000000000000E+20
 20
-1.000000000000000E+20
 30
-1.000000000000000E+20
  9
$PLIMMIN
 10
0.0
 20
0.0
  9
$PLIMMAX
 10
12.0
 20
9.0
  9
$UNITMODE
 70
     0
  9
$VISRETAIN
 70
     1
  9
$PLINEGEN
 70
     0
  9
$PSLTSCALE
 70
     1
  9
$TREEDEPTH
 70
  3020
  9
$CMLSTYLE
  2
Standard
  9
$CMLJUST
 70
     0
  9
$CMLSCALE
 40
1.0
  9
$PROXYGRAPHICS
 70
     1
  9
$MEASUREMENT
 70
     0
  9
$CELWEIGHT
370
    -1
  9
$ENDCAPS
280
     0
  9
$JOINSTYLE
280
     0
  9
$LWDISPLAY
290
     1
  9
$INSUNITS
 70
     1
  9
$HYPERLINKBASE
  1

  9
$STYLESHEET
  1

  9
$XEDIT
290
     1
  9
$CEPSNTYPE
380
     0
  9
$PSTYLEMODE
290
     1
  9
$FINGERPRINTGUID
  2
{A08598B8-F370-B730-EA7C-2176DA602DA9}
  9
$VERSIONGUID
  2
{FAEB1C32-E019-11D5-929B-00C0DF256EC4}
  9
$EXTNAMES
290
     1
  9
$PSVPSCALE
 40
0.0
  9
$OLESTARTUP
290
     0
  9
$SORTENTS
280
   127
  9
$INDEXCTL
280
     0
  9
$HIDETEXT
280
     1
  9
$XCLIPFRAME
280
     2
  9
$HALOGAP
280
     0
  9
$OBSCOLOR
 70
   257
  9
$OBSLTYPE
280
     0
  9
$INTERSECTIONDISPLAY
280
     0
  9
$INTERSECTIONCOLOR
 70
   257
  9
$DIMASSOC
280
     2
  9
$PROJECTNAME
  1

  9
$CAMERADISPLAY
290
     0
  9
$LENSLENGTH
 40
50.0
  9
$CAMERAHEIGHT
 40
0.0
  9
$STEPSPERSEC
 40
2.0
  9
$STEPSIZE
 40
6.0
  9
$3DDWFPREC
 40
2.0
  9
$PSOLWIDTH
 40
0.25
  9
$PSOLHEIGHT
 40
4.0
  9
$LOFTANG1
 40
1.570796326794897
  9
$LOFTANG2
 40
1.570796326794897
  9
$LOFTMAG1
 40
0.0
  9
$LOFTMAG2
 40
0.0
  9
$LOFTPARAM
 70
     7
  9
$LOFTNORMALS
280
     1
  9
$LATITUDE
 40
37.795
  9
$LONGITUDE
 40
-122.394
  9
$NORTHDIRECTION
 40
0.0
  9
$TIMEZONE
 70
 -8000
  9
$LIGHTGLYPHDISPLAY
280
     1
  9
$TILEMODELIGHTSYNCH
280
     1
  9
$CMATERIAL
347
3C
  9
$SOLIDHIST
280
     1
  9
$SHOWHIST
280
     1
  9
$DWFFRAME
280
     2
  9
$DGNFRAME
280
     2
  9
$REALWORLDSCALE
290
     1
  9
$INTERFERECOLOR
 62
   256
  9
$CSHADOW
280
     0
  9
$SHADOWPLANELOCATION
 40
0.0
  0
ENDSEC
  0
SECTION
  2
CLASSES
  0
CLASS
  1
ACDBDICTIONARYWDFLT
  2
AcDbDictionaryWithDefault
  3
ObjectDBX Classes
 90
        0
 91
        4
280
     0
281
     0
  0
CLASS
  1
VISUALSTYLE
  2
AcDbVisualStyle
  3
ObjectDBX Classes
 90
     4095
 91
        4
280
     0
281
     0
  0
CLASS
  1
MATERIAL
  2
AcDbMaterial
  3
ObjectDBX Classes
 90
     1153
 91
        4
280
     0
281
     0
  0
CLASS
  1
SUN
  2
AcDbSun
  3
SCENEOE
 90
     1024
 91
        4
280
     0
281
     0
  0
ENDSEC
  0
SECTION
  2
TABLES
  0
TABLE
  2
VPORT
  5
8
330
0
100
AcDbSymbolTable
 70
     1
  0
VPORT
  5
29
330
8
100
AcDbSymbolTableRecord
100
AcDbViewportTableRecord
  2
*Active
 70
     0
 10
0.0
 20
0.0
 11
1.0
 21
1.0
 12
0.0
 22
0.0
 13
0.0
 23
0.0
 14
0.5
 24
0.5
 15
0.5
 25
0.5
 16
0.0
 26
0.0
 36
1.0
 17
42.0
 27
-10.0
 37
0.0
 40
20.0
 41
4.2
 42
50.0
 43
0.0
 44
0.0
 50
0.0
 51
0.0
 71
     0
 72
   100
 73
     1
 74
     3
 75
     0
 76
     0
 77
     0
 78
     0
281
     0
 65
     1
110
0.0
120
0.0
130
0.0
111
1.0
121
0.0
131
0.0
112
0.0
122
1.0
132
0.0
 79
     0
146
0.0
 60
     3
 61
     5
292
     1
282
     1
141
0.0
142
0.0
 63
   250
361
3F
  0
ENDTAB
  0
TABLE
  2
LTYPE
  5
5
330
0
100
AcDbSymbolTable
 70
     1
  0
LTYPE
  5
14
330
5
100
AcDbSymbolTableRecord
100
AcDbLinetypeTableRecord
  2
ByBlock
 70
     0
  3

 72
    65
 73
     0
 40
0.0
  0
LTYPE
  5
15
330
5
100
AcDbSymbolTableRecord
100
AcDbLinetypeTableRecord
  2
ByLayer
 70
     0
  3

 72
    65
 73
     0
 40
0.0
  0
LTYPE
  5
16
330
5
100
AcDbSymbolTableRecord
100
AcDbLinetypeTableRecord
  2
Continuous
 70
     0
  3
Solid line
 72
    65
 73
     0
 40
0.0
  0
ENDTAB
  0
TABLE
  2
LAYER
  5
2
330
0
100
AcDbSymbolTable
 70
     2
  0
LAYER
  5
10
330
2
100
AcDbSymbolTableRecord
100
AcDbLayerTableRecord
  2
0
 70
     0
 62
     7
  6
Continuous
370
    -3
390
F
347
3E
  0
LAYER
  5
40
330
2
100
AcDbSymbolTableRecord
100
AcDbLayerTableRecord
  2
Layer 1
 70
     0
 62
     7
  6
Continuous
370
    -3
390
F
347
3E
  0
ENDTAB
  0
TABLE
  2
STYLE
  5
3
330
0
100
AcDbSymbolTable
 70
     1
  0
STYLE
  5
11
330
3
100
AcDbSymbolTableRecord
100
AcDbTextStyleTableRecord
  2
Standard
 70
     0
 40
0.0
 41
1.0
 50
0.0
 71
     0
 42
0.2
  3
txt
  4

  0
ENDTAB
  0
TABLE
  2
VIEW
  5
6
330
0
100
AcDbSymbolTable
 70
     0
  0
ENDTAB
  0
TABLE
  2
UCS
  5
7
330
0
100
AcDbSymbolTable
 70
     0
  0
ENDTAB
  0
TABLE
  2
APPID
  5
9
330
0
100
AcDbSymbolTable
 70
     1
  0
APPID
  5
12
330
9
100
AcDbSymbolTableRecord
100
AcDbRegAppTableRecord
  2
ACAD
 70
     0
  0
ENDTAB
  0
TABLE
  2
DIMSTYLE
  5
A
330
0
100
AcDbSymbolTable
 70
     1
100
AcDbDimStyleTable
  0
DIMSTYLE
105
27
330
A
100
AcDbSymbolTableRecord
100
AcDbDimStyleTableRecord
  2
Standard
 70
     0
178
     0
340
11
  0
ENDTAB
  0
TABLE
  2
BLOCK_RECORD
  5
1
330
0
100
AcDbSymbolTable
 70
     9
  0
BLOCK_RECORD
  5
1F
330
1
100
AcDbSymbolTableRecord
100
AcDbBlockTableRecord
  2
*Model_Space
340
22
 70
     0
280
     1
281
     0
  0
BLOCK_RECORD
  5
1B
330
1
100
AcDbSymbolTableRecord
100
AcDbBlockTableRecord
  2
*Paper_Space
340
1E
 70
     0
280
     1
281
     0
  0
BLOCK_RECORD
  5
23
330
1
100
AcDbSymbolTableRecord
100
AcDbBlockTableRecord
  2
*Paper_Space0
340
26
 70
     0
280
     1
281
     0
  0
BLOCK_RECORD
  5
98
330
1
100
AcDbSymbolTableRecord
100
AcDbBlockTableRecord
  2
block 2
340
0
102
{BLKREFS
331
99
102
}
 70
     0
280
     1
281
     0
  0
BLOCK_RECORD
  5
AF
330
1
100
AcDbSymbolTableRecord
100
AcDbBlockTableRecord
  2
block 3
340
0
102
{BLKREFS
331
B0
102
}
 70
     0
280
     1
281
     0
  0
BLOCK_RECORD
  5
D9
330
1
100
AcDbSymbolTableRecord
100
AcDbBlockTableRecord
  2
block 4
340
0
102
{BLKREFS
331
DA
102
}
 70
     0
280
     1
281
     0
  0
BLOCK_RECORD
  5
104
330
1
100
AcDbSymbolTableRecord
100
AcDbBlockTableRecord
  2
block 5
340
0
102
{BLKREFS
331
105
102
}
 70
     0
280
     1
281
     0
  0
BLOCK_RECORD
  5
10A
330
1
100
AcDbSymbolTableRecord
100
AcDbBlockTableRecord
  2
block 6
340
0
102
{BLKREFS
331
10B
102
}
 70
     0
280
     1
281
     0
  0
BLOCK_RECORD
  5
125
330
1
100
AcDbSymbolTableRecord
100
AcDbBlockTableRecord
  2
block 7
340
0
102
{BLKREFS
331
126
102
}
 70
     0
280
     1
281
     0
  0
BLOCK_RECORD
  5
140
330
1
100
AcDbSymbolTableRecord
100
AcDbBlockTableRecord
  2
block 8
340
0
102
{BLKREFS
331
141
102
}
 70
     0
280
     1
281
     0
  0
BLOCK_RECORD
  5
15B
330
1
100
AcDbSymbolTableRecord
100
AcDbBlockTableRecord
  2
block 9
340
0
102
{BLKREFS
331
15C
102
}
 70
     0
280
     1
281
     0
  0
ENDTAB
  0
ENDSEC
  0
SECTION
  2
BLOCKS
  0
BLOCK
  5
20
330
1F
100
AcDbEntity
  8
0
100
AcDbBlockBegin
  2
*Model_Space
 70
     0
 10
0.0
 20
0.0
 30
0.0
  3
*Model_Space
  1

  0
ENDBLK
  5
21
330
1F
100
AcDbEntity
  8
0
100
AcDbBlockEnd
  0
BLOCK
  5
1C
330
1B
100
AcDbEntity
 67
     1
  8
0
100
AcDbBlockBegin
  2
*Paper_Space
 70
     0
 10
0.0
 20
0.0
 30
0.0
  3
*Paper_Space
  1

  0
ENDBLK
  5
1D
330
1B
100
AcDbEntity
 67
     1
  8
0
100
AcDbBlockEnd
  0
BLOCK
  5
24
330
23
100
AcDbEntity
  8
0
100
AcDbBlockBegin
  2
*Paper_Space0
 70
     0
 10
0.0
 20
0.0
 30
0.0
  3
*Paper_Space0
  1

  0
ENDBLK
  5
25
330
23
100
AcDbEntity
  8
0
100
AcDbBlockEnd
  0
BLOCK
  5
9A
330
98
100
AcDbEntity
  8
0
100
AcDbBlockBegin
  2
block 2
 70
     0
 10
0.0
 20
0.0
 30
0.0
  3
block 2
  1

  0
POLYLINE
  5
9C
330
98
100
AcDbEntity
  8
Layer 1
370
     0
100
AcDb2dPolyline
 66
     1
 10
0.0
 20
0.0
 30
0.0
  0
VERTEX
  5
9D
330
9C
100
AcDbEntity
  8
Layer 1
370
     0
100
AcDbVertex
100
AcDb2dVertex
 10
5.110270182291666
 20
-17.93135579427083
 30
0.0
  0
VERTEX
  5
9E
330
9C
100
AcDbEntity
  8
Layer 1
370
     0
100
AcDbVertex
100
AcDb2dVertex
 10
5.377271864149305
 20
-18.64535861545139
 30
0.0
  0
VERTEX
  5
9F
330
9C
100
AcDbEntity
  8
Layer 1
370
     0
100
AcDbVertex
100
AcDb2dVertex
 10
5.214274088541666
 20
-18.64535861545139
 30
0.0
  0
VERTEX
  5
A0
330
9C
100
AcDbEntity
  8
Layer 1
370
     0
100
AcDbVertex
100
AcDb2dVertex
 10
5.160271538628472
 20
-18.48635525173611
 30
0.0
  0
VERTEX
  5
A1
330
9C
100
AcDbEntity
  8
Layer 1
370
     0
100
AcDbVertex
100
AcDb2dVertex
 10
4.893269856770833
 20
-18.48635525173611
 30
0.0
  0
VERTEX
  5
A2
330
9C
100
AcDbEntity
  8
Layer 1
370
     0
100
AcDbVertex
100
AcDb2dVertex
 10
4.837273491753472
 20
-18.64535861545139
 30
0.0
  0
VERTEX
  5
A3
330
9C
100
AcDbEntity
  8
Layer 1
370
     0
100
AcDbVertex
100
AcDb2dVertex
 10
4.679273817274305
 20
-18.64535861545139
 30
0.0
  0
VERTEX
  5
A4
330
9C
100
AcDbEntity
  8
Layer 1
370
     0
100
AcDbVertex
100
AcDb2dVertex
 10
4.949273003472222
 20
-17.93135579427083
 30
0.0
  0
VERTEX
  5
A5
330
9C
100
AcDbEntity
  8
Layer 1
370
     0
100
AcDbVertex
100
AcDb2dVertex
 10
5.110270182291666
 20
-17.93135579427083
 30
0.0
  0
SEQEND
  5
A6
330
9C
100
AcDbEntity
  8
Layer 1
370
     0
  0
POLYLINE
  5
A7
330
98
100
AcDbEntity
  8
Layer 1
370
     0
100
AcDb2dPolyline
 66
     1
 10
0.0
 20
0.0
 30
0.0
  0
VERTEX
  5
A8
330
A7
100
AcDbEntity
  8
Layer 1
370
     0
100
AcDbVertex
100
AcDb2dVertex
 10
5.119269476996528
 20
-18.36935763888889
 30
0.0
  0
VERTEX
  5
A9
330
A7
100
AcDbEntity
  8
Layer 1
370
     0
100
AcDbVertex
100
AcDb2dVertex
 10
5.029269748263888
 20
-18.10735405815972
 30
0.0
  0
VERTEX
  5
AA
330
A7
100
AcDbEntity
  8
Layer 1
370
     0
100
AcDbVertex
100
AcDb2dVertex
 10
5.027269151475694
 20
-18.10735405815972
 30
0.0
  0
VERTEX
  5
AB
330
A7
100
AcDbEntity
  8
Layer 1
370
     0
100
AcDbVertex
100
AcDb2dVertex
 10
4.934271918402778
 20
-18.36935763888889
 30
0.0
  0
VERTEX
  5
AC
330
A7
100
AcDbEntity
  8
Layer 1
370
     0
100
AcDbVertex
100
AcDb2dVertex
 10
5.119269476996528
 20
-18.36935763888889
 30
0.0
  0
SEQEND
  5
AD
330
A7
100
AcDbEntity
  8
Layer 1
370
     0
  0
HATCH
  5
AE
330
98
100
AcDbEntity
  8
Layer 1
 62
    22
420
 15540772
100
AcDbHatch
 10
0.0
 20
0.0
 30
0.0
210
0.0
220
0.0
230
1.0
  2
SOLID
 70
     1
 71
     0
 91
        2
 92
        1
 93
        8
 72
     1
 10
5.110270182291666
 20
-17.93135579427083
 11
5.377271864149305
 21
-18.64535861545139
 72
     1
 10
5.377271864149305
 20
-18.64535861545139
 11
5.214274088541666
 21
-18.64535861545139
 72
     1
 10
5.214274088541666
 20
-18.64535861545139
 11
5.160271538628472
 21
-18.48635525173611
 72
     1
 10
5.160271538628472
 20
-18.48635525173611
 11
4.893269856770833
 21
-18.48635525173611
 72
     1
 10
4.893269856770833
 20
-18.48635525173611
 11
4.837273491753472
 21
-18.64535861545139
 72
     1
 10
4.837273491753472
 20
-18.64535861545139
 11
4.679273817274305
 21
-18.64535861545139
 72
     1
 10
4.679273817274305
 20
-18.64535861545139
 11
4.949273003472222
 21
-17.93135579427083
 72
     1
 10
4.949273003472222
 20
-17.93135579427083
 11
5.110270182291666
 21
-17.93135579427083
 97
        0
 92
        1
 93
        4
 72
     1
 10
5.119269476996528
 20
-18.36935763888889
 11
5.029269748263888
 21
-18.10735405815972
 72
     1
 10
5.029269748263888
 20
-18.10735405815972
 11
5.027269151475694
 21
-18.10735405815972
 72
     1
 10
5.027269151475694
 20
-18.10735405815972
 11
4.934271918402778
 21
-18.36935763888889
 72
     1
 10
4.934271918402778
 20
-18.36935763888889
 11
5.119269476996528
 21
-18.36935763888889
 97
        0
 75
     2
 76
     1
 98
        0
  0
ENDBLK
  5
9B
330
98
100
AcDbEntity
  8
0
100
AcDbBlockEnd
  0
BLOCK
  5
B1
330
AF
100
AcDbEntity
  8
0
100
AcDbBlockBegin
  2
block 3
 70
     0
 10
0.0
 20
0.0
 30
0.0
  3
block 3
  1

  0
SPLINE
  5
B3
330
AF
100
AcDbEntity
  8
Layer 1
370
     0
100
AcDbSpline
210
0.0
220
0.0
230
1.0
 70
    11
 71
     3
 72
    38
 73
    34
 74
     0
 42
0.0000000001
 43
0.0000000001
 12
1.0
 22
0.0
 32
0.0
 13
1.0
 23
0.0
 33
0.0
 40
0.0
 40
0.0
 40
0.0
 40
0.0
 40
1.0
 40
1.0
 40
1.0
 40
2.0
 40
2.0
 40
2.0
 40
3.0
 40
3.0
 40
3.0
 40
4.0
 40
4.0
 40
4.0
 40
5.0
 40
5.0
 40
5.0
 40
6.0
 40
6.0
 40
6.0
 40
7.0
 40
7.0
 40
7.0
 40
8.0
 40
8.0
 40
8.0
 40
9.0
 40
9.0
 40
9.0
 40
10.0
 40
10.0
 40
10.0
 40
11.0
 40
11.0
 40
11.0
 40
11.0
 10
74.66563585069444
 20
-1.513685438368056
 30
0.0
 10
74.66563585069444
 20
-1.559678819444444
 30
0.0
 10
74.65828450520833
 20
-1.602511935763889
 30
0.0
 10
74.64363606770833
 20
-1.642184787326389
 30
0.0
 10
74.62896050347221
 20
-1.681837293836805
 30
0.0
 10
74.6069607204861
 20
-1.716179741753472
 30
0.0
 10
74.57763671875
 20
-1.745185004340278
 30
0.0
 10
74.54828559027777
 20
-1.774183485243055
 30
0.0
 10
74.51163736979166
 20
-1.796841091579861
 30
0.0
 10
74.46763780381944
 20
-1.813184950086805
 30
0.0
 10
74.42363823784721
 20
-1.829508463541667
 30
0.0
 10
74.37196180555556
 20
-1.837680392795139
 30
0.0
 10
74.31263563368056
 20
-1.837680392795139
 30
0.0
 10
74.26063368055556
 20
-1.837680392795139
 30
0.0
 10
74.21263292100694
 20
-1.831013997395833
 30
0.0
 10
74.16863335503471
 20
-1.817681206597222
 30
0.0
 10
74.1246337890625
 20
-1.804334852430555
 30
0.0
 10
74.08662923177083
 20
-1.7841796875
 30
0.0
 10
74.05463324652777
 20
-1.757181803385417
 30
0.0
 10
74.02263726128471
 20
-1.730183919270833
 30
0.0
 10
73.9974636501736
 20
-1.696512858072917
 30
0.0
 10
73.97913953993056
 20
-1.656182183159722
 30
0.0
 10
73.96078830295139
 20
-1.615837944878472
 30
0.0
 10
73.95163302951389
 20
-1.568339029947917
 30
0.0
 10
73.95163302951389
 20
-1.513685438368056
 30
0.0
 10
73.95163302951389
 20
-1.513685438368056
 30
0.0
 10
73.95163302951389
 20
-1.205681694878472
 30
0.0
 10
73.95163302951389
 20
-1.205681694878472
 30
0.0
 10
73.95163302951389
 20
-1.205681694878472
 30
0.0
 10
74.66563585069444
 20
-1.205681694878472
 30
0.0
 10
74.66563585069444
 20
-1.205681694878472
 30
0.0
 10
74.66563585069444
 20
-1.205681694878472
 30
0.0
 10
74.66563585069444
 20
-1.513685438368056
 30
0.0
 10
74.66563585069444
 20
-1.513685438368056
 30
0.0
  0
SPLINE
  5
B4
330
AF
100
AcDbEntity
  8
Layer 1
370
     0
100
AcDbSpline
210
0.0
220
0.0
230
1.0
 70
    11
 71
     3
 72
    38
 73
    34
 74
     0
 42
0.0000000001
 43
0.0000000001
 12
1.0
 22
0.0
 32
0.0
 13
1.0
 23
0.0
 33
0.0
 40
0.0
 40
0.0
 40
0.0
 40
0.0
 40
1.0
 40
1.0
 40
1.0
 40
2.0
 40
2.0
 40
2.0
 40
3.0
 40
3.0
 40
3.0
 40
4.0
 40
4.0
 40
4.0
 40
5.0
 40
5.0
 40
5.0
 40
6.0
 40
6.0
 40
6.0
 40
7.0
 40
7.0
 40
7.0
 40
8.0
 40
8.0
 40
8.0
 40
9.0
 40
9.0
 40
9.0
 40
10.0
 40
10.0
 40
10.0
 40
11.0
 40
11.0
 40
11.0
 40
11.0
 10
74.08363172743056
 20
-1.502685546875
 30
0.0
 10
74.08363172743056
 20
-1.525336371527778
 30
0.0
 10
74.08729383680556
 20
-1.547336154513889
 30
0.0
 10
74.0946316189236
 20
-1.568684895833333
 30
0.0
 10
74.1019558376736
 20
-1.590013292100694
 30
0.0
 10
74.1141357421875
 20
-1.6090087890625
 30
0.0
 10
74.1311306423611
 20
-1.625684950086805
 30
0.0
 10
74.14813910590277
 20
-1.642340766059028
 30
0.0
 10
74.1702880859375
 20
-1.655680338541667
 30
0.0
 10
74.1976318359375
 20
-1.665683322482639
 30
0.0
 10
74.22496202256944
 20
-1.675679524739583
 30
0.0
 10
74.25828721788194
 20
-1.680684407552083
 30
0.0
 10
74.2976345486111
 20
-1.680684407552083
 30
0.0
 10
74.33363172743056
 20
-1.680684407552083
 30
0.0
 10
74.36612955729166
 20
-1.67718505859375
 30
0.0
 10
74.39512803819444
 20
-1.670179578993055
 30
0.0
 10
74.42412651909721
 20
-1.663180881076389
 30
0.0
 10
74.44896104600694
 20
-1.651679144965278
 30
0.0
 10
74.4696316189236
 20
-1.63568115234375
 30
0.0
 10
74.49028862847221
 20
-1.619683159722222
 30
0.0
 10
74.5061306423611
 20
-1.5985107421875
 30
0.0
 10
74.51713053385416
 20
-1.572184244791667
 30
0.0
 10
74.52813042534721
 20
-1.54583740234375
 30
0.0
 10
74.53363715277777
 20
-1.513339572482639
 30
0.0
 10
74.53363715277777
 20
-1.474683973524306
 30
0.0
 10
74.53363715277777
 20
-1.474683973524306
 30
0.0
 10
74.53363715277777
 20
-1.362684461805556
 30
0.0
 10
74.53363715277777
 20
-1.362684461805556
 30
0.0
 10
74.53363715277777
 20
-1.362684461805556
 30
0.0
 10
74.08363172743056
 20
-1.362684461805556
 30
0.0
 10
74.08363172743056
 20
-1.362684461805556
 30
0.0
 10
74.08363172743056
 20
-1.362684461805556
 30
0.0
 10
74.08363172743056
 20
-1.502685546875
 30
0.0
 10
74.08363172743056
 20
-1.502685546875
 30
0.0
  0
HATCH
  5
B5
330
AF
100
AcDbEntity
  8
Layer 1
 62
    22
420
 15540772
100
AcDbHatch
 10
0.0
 20
0.0
 30
0.0
210
0.0
220
0.0
230
1.0
  2
SOLID
 70
     1
 71
     0
 91
        2
 92
        1
 93
        1
 72
     4
 94
        3
 73
     0
 74
     1
 95
       38
 96
       34
 40
0.0
 40
0.0
 40
0.0
 40
0.0
 40
1.0
 40
1.0
 40
1.0
 40
2.0
 40
2.0
 40
2.0
 40
3.0
 40
3.0
 40
3.0
 40
4.0
 40
4.0
 40
4.0
 40
5.0
 40
5.0
 40
5.0
 40
6.0
 40
6.0
 40
6.0
 40
7.0
 40
7.0
 40
7.0
 40
8.0
 40
8.0
 40
8.0
 40
9.0
 40
9.0
 40
9.0
 40
10.0
 40
10.0
 40
10.0
 40
11.0
 40
11.0
 40
11.0
 40
11.0
 10
74.66563585069444
 20
-1.513685438368056
 10
74.66563585069444
 20
-1.559678819444444
 10
74.65828450520833
 20
-1.602511935763889
 10
74.64363606770833
 20
-1.642184787326389
 10
74.62896050347221
 20
-1.681837293836805
 10
74.6069607204861
 20
-1.716179741753472
 10
74.57763671875
 20
-1.745185004340278
 10
74.54828559027777
 20
-1.774183485243055
 10
74.51163736979166
 20
-1.796841091579861
 10
74.46763780381944
 20
-1.813184950086805
 10
74.42363823784721
 20
-1.829508463541667
 10
74.37196180555556
 20
-1.837680392795139
 10
74.31263563368056
 20
-1.837680392795139
 10
74.26063368055556
 20
-1.837680392795139
 10
74.21263292100694
 20
-1.831013997395833
 10
74.16863335503471
 20
-1.817681206597222
 10
74.1246337890625
 20
-1.804334852430555
 10
74.08662923177083
 20
-1.7841796875
 10
74.05463324652777
 20
-1.757181803385417
 10
74.02263726128471
 20
-1.730183919270833
 10
73.9974636501736
 20
-1.696512858072917
 10
73.97913953993056
 20
-1.656182183159722
 10
73.96078830295139
 20
-1.615837944878472
 10
73.95163302951389
 20
-1.568339029947917
 10
73.95163302951389
 20
-1.513685438368056
 10
73.95163302951389
 20
-1.513685438368056
 10
73.95163302951389
 20
-1.205681694878472
 10
73.95163302951389
 20
-1.205681694878472
 10
73.95163302951389
 20
-1.205681694878472
 10
74.66563585069444
 20
-1.205681694878472
 10
74.66563585069444
 20
-1.205681694878472
 10
74.66563585069444
 20
-1.205681694878472
 10
74.66563585069444
 20
-1.513685438368056
 10
74.66563585069444
 20
-1.513685438368056
 97
        0
 97
        0
 92
        1
 93
        1
 72
     4
 94
        3
 73
     0
 74
     1
 95
       38
 96
       34
 40
0.0
 40
0.0
 40
0.0
 40
0.0
 40
1.0
 40
1.0
 40
1.0
 40
2.0
 40
2.0
 40
2.0
 40
3.0
 40
3.0
 40
3.0
 40
4.0
 40
4.0
 40
4.0
 40
5.0
 40
5.0
 40
5.0
 40
6.0
 40
6.0
 40
6.0
 40
7.0
 40
7.0
 40
7.0
 40
8.0
 40
8.0
 40
8.0
 40
9.0
 40
9.0
 40
9.0
 40
10.0
 40
10.0
 40
10.0
 40
11.0
 40
11.0
 40
11.0
 40
11.0
 10
74.08363172743056
 20
-1.502685546875
 10
74.08363172743056
 20
-1.525336371527778
 10
74.08729383680556
 20
-1.547336154513889
 10
74.0946316189236
 20
-1.568684895833333
 10
74.1019558376736
 20
-1.590013292100694
 10
74.1141357421875
 20
-1.6090087890625
 10
74.1311306423611
 20
-1.625684950086805
 10
74.14813910590277
 20
-1.642340766059028
 10
74.1702880859375
 20
-1.655680338541667
 10
74.1976318359375
 20
-1.665683322482639
 10
74.22496202256944
 20
-1.675679524739583
 10
74.25828721788194
 20
-1.680684407552083
 10
74.2976345486111
 20
-1.680684407552083
 10
74.33363172743056
 20
-1.680684407552083
 10
74.36612955729166
 20
-1.67718505859375
 10
74.39512803819444
 20
-1.670179578993055
 10
74.42412651909721
 20
-1.663180881076389
 10
74.44896104600694
 20
-1.651679144965278
 10
74.4696316189236
 20
-1.63568115234375
 10
74.49028862847221
 20
-1.619683159722222
 10
74.5061306423611
 20
-1.5985107421875
 10
74.51713053385416
 20
-1.572184244791667
 10
74.52813042534721
 20
-1.54583740234375
 10
74.53363715277777
 20
-1.513339572482639
 10
74.53363715277777
 20
-1.474683973524306
 10
74.53363715277777
 20
-1.474683973524306
 10
74.53363715277777
 20
-1.362684461805556
 10
74.53363715277777
 20
-1.362684461805556
 10
74.53363715277777
 20
-1.362684461805556
 10
74.08363172743056
 20
-1.362684461805556
 10
74.08363172743056
 20
-1.362684461805556
 10
74.08363172743056
 20
-1.362684461805556
 10
74.08363172743056
 20
-1.502685546875
 10
74.08363172743056
 20
-1.502685546875
 97
        0
 97
        0
 75
     2
 76
     1
 98
        0
  0
ENDBLK
  5
B2
330
AF
100
AcDbEntity
  8
0
100
AcDbBlockEnd
  0
BLOCK
  5
DB
330
D9
100
AcDbEntity
  8
0
100
AcDbBlockBegin
  2
block 4
 70
     0
 10
0.0
 20
0.0
 30
0.0
  3
block 4
  1

  0
SPLINE
  5
DD
330
D9
100
AcDbEntity
  8
Layer 1
370
     0
100
AcDbSpline
210
0.0
220
0.0
230
1.0
 70
    11
 71
     3
 72
    50
 73
    46
 74
     0
 42
0.0000000001
 43
0.0000000001
 12
1.0
 22
0.0
 32
0.0
 13
1.0
 23
0.0
 33
0.0
 40
0.0
 40
0.0
 40
0.0
 40
0.0
 40
1.0
 40
1.0
 40
1.0
 40
2.0
 40
2.0
 40
2.0
 40
3.0
 40
3.0
 40
3.0
 40
4.0
 40
4.0
 40
4.0
 40
5.0
 40
5.0
 40
5.0
 40
6.0
 40
6.0
 40
6.0
 40
7.0
 40
7.0
 40
7.0
 40
8.0
 40
8.0
 40
8.0
 40
9.0
 40
9.0
 40
9.0
 40
10.0
 40
10.0
 40
10.0
 40
11.0
 40
11.0
 40
11.0
 40
12.0
 40
12.0
 40
12.0
 40
13.0
 40
13.0
 40
13.0
 40
14.0
 40
14.0
 40
14.0
 40
15.0
 40
15.0
 40
15.0
 40
15.0
 10
25.99203830295139
 20
-18.05044216579861
 30
0.0
 10
26.02604166666666
 20
-18.05044216579861
 30
0.0
 10
26.05704074435764
 20
-18.05343967013889
 30
0.0
 10
26.08504231770833
 20
-18.0594482421875
 30
0.0
 10
26.11304389105903
 20
-18.06544325086805
 30
0.0
 10
26.13704427083333
 20
-18.07529025607639
 30
0.0
 10
26.15704345703125
 20
-18.08894856770833
 30
0.0
 10
26.17704264322916
 20
-18.10262044270833
 30
0.0
 10
26.19253879123264
 20
-18.12079535590278
 30
0.0
 10
26.20353868272569
 20
-18.14344618055555
 30
0.0
 10
26.21453857421875
 20
-18.16611056857639
 30
0.0
 10
26.22003851996528
 20
-18.19411892361111
 30
0.0
 10
26.22003851996528
 20
-18.22744411892361
 30
0.0
 10
26.22003851996528
 20
-18.26344129774305
 30
0.0
 10
26.2118665907118
 20
-18.29344346788194
 30
0.0
 10
26.19554307725694
 20
-18.31745062934028
 30
0.0
 10
26.17919921875
 20
-18.34144422743055
 30
0.0
 10
26.15504286024305
 20
-18.36111111111111
 30
0.0
 10
26.12304009331597
 20
-18.37645128038194
 30
0.0
 10
26.16703965928819
 20
-18.38911946614583
 30
0.0
 10
26.19986979166666
 20
-18.41128200954861
 30
0.0
 10
26.22154405381944
 20
-18.44293891059028
 30
0.0
 10
26.24319797092014
 20
-18.47462293836805
 30
0.0
 10
26.25404188368055
 20
-18.51279025607639
 30
0.0
 10
26.25404188368055
 20
-18.55744086371528
 30
0.0
 10
26.25404188368055
 20
-18.59345160590278
 30
0.0
 10
26.24704318576389
 20
-18.62462022569444
 30
0.0
 10
26.23303900824653
 20
-18.65094672309028
 30
0.0
 10
26.21904161241319
 20
-18.67728678385416
 30
0.0
 10
26.2001953125
 20
-18.69878472222222
 30
0.0
 10
26.17654079861111
 20
-18.71544053819444
 30
0.0
 10
26.15287272135416
 20
-18.73212348090278
 30
0.0
 10
26.12586805555555
 20
-18.74443901909722
 30
0.0
 10
26.09554036458333
 20
-18.75244140625
 30
0.0
 10
26.06519911024305
 20
-18.76044379340278
 30
0.0
 10
26.03404405381944
 20
-18.76444498697916
 30
0.0
 10
26.00204128689236
 20
-18.76444498697916
 30
0.0
 10
26.00204128689236
 20
-18.76444498697916
 30
0.0
 10
25.65603976779514
 20
-18.76444498697916
 30
0.0
 10
25.65603976779514
 20
-18.76444498697916
 30
0.0
 10
25.65603976779514
 20
-18.76444498697916
 30
0.0
 10
25.65603976779514
 20
-18.05044216579861
 30
0.0
 10
25.65603976779514
 20
-18.05044216579861
 30
0.0
 10
25.65603976779514
 20
-18.05044216579861
 30
0.0
 10
25.99203830295139
 20
-18.05044216579861
 30
0.0
 10
25.99203830295139
 20
-18.05044216579861
 30
0.0
  0
SPLINE
  5
DE
330
D9
100
AcDbEntity
  8
Layer 1
370
     0
100
AcDbSpline
210
0.0
220
0.0
230
1.0
 70
    11
 71
     3
 72
    32
 73
    28
 74
     0
 42
0.0000000001
 43
0.0000000001
 12
1.0
 22
0.0
 32
0.0
 13
1.0
 23
0.0
 33
0.0
 40
0.0
 40
0.0
 40
0.0
 40
0.0
 40
1.0
 40
1.0
 40
1.0
 40
2.0
 40
2.0
 40
2.0
 40
3.0
 40
3.0
 40
3.0
 40
4.0
 40
4.0
 40
4.0
 40
5.0
 40
5.0
 40
5.0
 40
6.0
 40
6.0
 40
6.0
 40
7.0
 40
7.0
 40
7.0
 40
8.0
 40
8.0
 40
8.0
 40
9.0
 40
9.0
 40
9.0
 40
9.0
 10
25.97203911675347
 20
-18.33945041232639
 30
0.0
 10
26.00004069010416
 20
-18.33945041232639
 30
0.0
 10
26.02304416232639
 20
-18.33279079861111
 30
0.0
 10
26.04104275173611
 20
-18.31944444444444
 30
0.0
 10
26.05904134114583
 20
-18.30611165364583
 30
0.0
 10
26.06804063585069
 20
-18.28445095486111
 30
0.0
 10
26.06804063585069
 20
-18.25444878472222
 30
0.0
 10
26.06804063585069
 20
-18.23779296875
 30
0.0
 10
26.06504313151041
 20
-18.22412109375
 30
0.0
 10
26.05904134114583
 20
-18.21344672309028
 30
0.0
 10
26.05303955078125
 20
-18.20278591579861
 30
0.0
 10
26.0450439453125
 20
-18.19444444444444
 30
0.0
 10
26.03504096137153
 20
-18.18844943576389
 30
0.0
 10
26.02503797743055
 20
-18.18244086371528
 30
0.0
 10
26.01354302300347
 20
-18.17829047309028
 30
0.0
 10
26.00054253472222
 20
-18.17594401041666
 30
0.0
 10
25.98754204644097
 20
-18.17361111111111
 30
0.0
 10
25.97403971354166
 20
-18.17244466145833
 30
0.0
 10
25.96004231770833
 20
-18.17244466145833
 30
0.0
 10
25.96004231770833
 20
-18.17244466145833
 30
0.0
 10
25.81304253472222
 20
-18.17244466145833
 30
0.0
 10
25.81304253472222
 20
-18.17244466145833
 30
0.0
 10
25.81304253472222
 20
-18.17244466145833
 30
0.0
 10
25.81304253472222
 20
-18.33945041232639
 30
0.0
 10
25.81304253472222
 20
-18.33945041232639
 30
0.0
 10
25.81304253472222
 20
-18.33945041232639
 30
0.0
 10
25.97203911675347
 20
-18.33945041232639
 30
0.0
 10
25.97203911675347
 20
-18.33945041232639
 30
0.0
  0
SPLINE
  5
DF
330
D9
100
AcDbEntity
  8
Layer 1
370
     0
100
AcDbSpline
210
0.0
220
0.0
230
1.0
 70
    11
 71
     3
 72
    32
 73
    28
 74
     0
 42
0.0000000001
 43
0.0000000001
 12
1.0
 22
0.0
 32
0.0
 13
1.0
 23
0.0
 33
0.0
 40
0.0
 40
0.0
 40
0.0
 40
0.0
 40
1.0
 40
1.0
 40
1.0
 40
2.0
 40
2.0
 40
2.0
 40
3.0
 40
3.0
 40
3.0
 40
4.0
 40
4.0
 40
4.0
 40
5.0
 40
5.0
 40
5.0
 40
6.0
 40
6.0
 40
6.0
 40
7.0
 40
7.0
 40
7.0
 40
8.0
 40
8.0
 40
8.0
 40
9.0
 40
9.0
 40
9.0
 40
9.0
 10
25.98103841145833
 20
-18.64244249131944
 30
0.0
 10
25.99637179904514
 20
-18.64244249131944
 30
0.0
 10
26.01104058159722
 20
-18.64095052083333
 30
0.0
 10
26.02503797743055
 20
-18.637939453125
 30
0.0
 10
26.03904215494791
 20
-18.63494194878472
 30
0.0
 10
26.05137125651041
 20
-18.62995062934028
 30
0.0
 10
26.06203884548611
 20
-18.62293836805555
 30
0.0
 10
26.07269965277778
 20
-18.61593967013889
 30
0.0
 10
26.08119710286458
 20
-18.6064453125
 30
0.0
 10
26.08753797743055
 20
-18.59444173177083
 30
0.0
 10
26.0938720703125
 20
-18.58245171440972
 30
0.0
 10
26.09703911675347
 20
-18.56711154513889
 30
0.0
 10
26.09703911675347
 20
-18.54844835069444
 30
0.0
 10
26.09703911675347
 20
-18.51178656684028
 30
0.0
 10
26.08669704861111
 20
-18.48562282986111
 30
0.0
 10
26.0660400390625
 20
-18.46994357638889
 30
0.0
 10
26.04536946614583
 20
-18.45429144965278
 30
0.0
 10
26.01803927951389
 20
-18.44643825954861
 30
0.0
 10
25.98404269748264
 20
-18.44643825954861
 30
0.0
 10
25.98404269748264
 20
-18.44643825954861
 30
0.0
 10
25.81304253472222
 20
-18.44643825954861
 30
0.0
 10
25.81304253472222
 20
-18.44643825954861
 30
0.0
 10
25.81304253472222
 20
-18.44643825954861
 30
0.0
 10
25.81304253472222
 20
-18.64244249131944
 30
0.0
 10
25.81304253472222
 20
-18.64244249131944
 30
0.0
 10
25.81304253472222
 20
-18.64244249131944
 30
0.0
 10
25.98103841145833
 20
-18.64244249131944
 30
0.0
 10
25.98103841145833
 20
-18.64244249131944
 30
0.0
  0
HATCH
  5
E0
330
D9
100
AcDbEntity
  8
Layer 1
 62
    22
420
 15540772
100
AcDbHatch
 10
0.0
 20
0.0
 30
0.0
210
0.0
220
0.0
230
1.0
  2
SOLID
 70
     1
 71
     0
 91
        3
 92
        1
 93
        1
 72
     4
 94
        3
 73
     0
 74
     1
 95
       50
 96
       46
 40
0.0
 40
0.0
 40
0.0
 40
0.0
 40
1.0
 40
1.0
 40
1.0
 40
2.0
 40
2.0
 40
2.0
 40
3.0
 40
3.0
 40
3.0
 40
4.0
 40
4.0
 40
4.0
 40
5.0
 40
5.0
 40
5.0
 40
6.0
 40
6.0
 40
6.0
 40
7.0
 40
7.0
 40
7.0
 40
8.0
 40
8.0
 40
8.0
 40
9.0
 40
9.0
 40
9.0
 40
10.0
 40
10.0
 40
10.0
 40
11.0
 40
11.0
 40
11.0
 40
12.0
 40
12.0
 40
12.0
 40
13.0
 40
13.0
 40
13.0
 40
14.0
 40
14.0
 40
14.0
 40
15.0
 40
15.0
 40
15.0
 40
15.0
 10
25.99203830295139
 20
-18.05044216579861
 10
26.02604166666666
 20
-18.05044216579861
 10
26.05704074435764
 20
-18.05343967013889
 10
26.08504231770833
 20
-18.0594482421875
 10
26.11304389105903
 20
-18.06544325086805
 10
26.13704427083333
 20
-18.07529025607639
 10
26.15704345703125
 20
-18.08894856770833
 10
26.17704264322916
 20
-18.10262044270833
 10
26.19253879123264
 20
-18.12079535590278
 10
26.20353868272569
 20
-18.14344618055555
 10
26.21453857421875
 20
-18.16611056857639
 10
26.22003851996528
 20
-18.19411892361111
 10
26.22003851996528
 20
-18.22744411892361
 10
26.22003851996528
 20
-18.26344129774305
 10
26.2118665907118
 20
-18.29344346788194
 10
26.19554307725694
 20
-18.31745062934028
 10
26.17919921875
 20
-18.34144422743055
 10
26.15504286024305
 20
-18.36111111111111
 10
26.12304009331597
 20
-18.37645128038194
 10
26.16703965928819
 20
-18.38911946614583
 10
26.19986979166666
 20
-18.41128200954861
 10
26.22154405381944
 20
-18.44293891059028
 10
26.24319797092014
 20
-18.47462293836805
 10
26.25404188368055
 20
-18.51279025607639
 10
26.25404188368055
 20
-18.55744086371528
 10
26.25404188368055
 20
-18.59345160590278
 10
26.24704318576389
 20
-18.62462022569444
 10
26.23303900824653
 20
-18.65094672309028
 10
26.21904161241319
 20
-18.67728678385416
 10
26.2001953125
 20
-18.69878472222222
 10
26.17654079861111
 20
-18.71544053819444
 10
26.15287272135416
 20
-18.73212348090278
 10
26.12586805555555
 20
-18.74443901909722
 10
26.09554036458333
 20
-18.75244140625
 10
26.06519911024305
 20
-18.76044379340278
 10
26.03404405381944
 20
-18.76444498697916
 10
26.00204128689236
 20
-18.76444498697916
 10
26.00204128689236
 20
-18.76444498697916
 10
25.65603976779514
 20
-18.76444498697916
 10
25.65603976779514
 20
-18.76444498697916
 10
25.65603976779514
 20
-18.76444498697916
 10
25.65603976779514
 20
-18.05044216579861
 10
25.65603976779514
 20
-18.05044216579861
 10
25.65603976779514
 20
-18.05044216579861
 10
25.99203830295139
 20
-18.05044216579861
 10
25.99203830295139
 20
-18.05044216579861
 97
        0
 97
        0
 92
        1
 93
        1
 72
     4
 94
        3
 73
     0
 74
     1
 95
       32
 96
       28
 40
0.0
 40
0.0
 40
0.0
 40
0.0
 40
1.0
 40
1.0
 40
1.0
 40
2.0
 40
2.0
 40
2.0
 40
3.0
 40
3.0
 40
3.0
 40
4.0
 40
4.0
 40
4.0
 40
5.0
 40
5.0
 40
5.0
 40
6.0
 40
6.0
 40
6.0
 40
7.0
 40
7.0
 40
7.0
 40
8.0
 40
8.0
 40
8.0
 40
9.0
 40
9.0
 40
9.0
 40
9.0
 10
25.97203911675347
 20
-18.33945041232639
 10
26.00004069010416
 20
-18.33945041232639
 10
26.02304416232639
 20
-18.33279079861111
 10
26.04104275173611
 20
-18.31944444444444
 10
26.05904134114583
 20
-18.30611165364583
 10
26.06804063585069
 20
-18.28445095486111
 10
26.06804063585069
 20
-18.25444878472222
 10
26.06804063585069
 20
-18.23779296875
 10
26.06504313151041
 20
-18.22412109375
 10
26.05904134114583
 20
-18.21344672309028
 10
26.05303955078125
 20
-18.20278591579861
 10
26.0450439453125
 20
-18.19444444444444
 10
26.03504096137153
 20
-18.18844943576389
 10
26.02503797743055
 20
-18.18244086371528
 10
26.01354302300347
 20
-18.17829047309028
 10
26.00054253472222
 20
-18.17594401041666
 10
25.98754204644097
 20
-18.17361111111111
 10
25.97403971354166
 20
-18.17244466145833
 10
25.96004231770833
 20
-18.17244466145833
 10
25.96004231770833
 20
-18.17244466145833
 10
25.81304253472222
 20
-18.17244466145833
 10
25.81304253472222
 20
-18.17244466145833
 10
25.81304253472222
 20
-18.17244466145833
 10
25.81304253472222
 20
-18.33945041232639
 10
25.81304253472222
 20
-18.33945041232639
 10
25.81304253472222
 20
-18.33945041232639
 10
25.97203911675347
 20
-18.33945041232639
 10
25.97203911675347
 20
-18.33945041232639
 97
        0
 97
        0
 92
        1
 93
        1
 72
     4
 94
        3
 73
     0
 74
     1
 95
       32
 96
       28
 40
0.0
 40
0.0
 40
0.0
 40
0.0
 40
1.0
 40
1.0
 40
1.0
 40
2.0
 40
2.0
 40
2.0
 40
3.0
 40
3.0
 40
3.0
 40
4.0
 40
4.0
 40
4.0
 40
5.0
 40
5.0
 40
5.0
 40
6.0
 40
6.0
 40
6.0
 40
7.0
 40
7.0
 40
7.0
 40
8.0
 40
8.0
 40
8.0
 40
9.0
 40
9.0
 40
9.0
 40
9.0
 10
25.98103841145833
 20
-18.64244249131944
 10
25.99637179904514
 20
-18.64244249131944
 10
26.01104058159722
 20
-18.64095052083333
 10
26.02503797743055
 20
-18.637939453125
 10
26.03904215494791
 20
-18.63494194878472
 10
26.05137125651041
 20
-18.62995062934028
 10
26.06203884548611
 20
-18.62293836805555
 10
26.07269965277778
 20
-18.61593967013889
 10
26.08119710286458
 20
-18.6064453125
 10
26.08753797743055
 20
-18.59444173177083
 10
26.0938720703125
 20
-18.58245171440972
 10
26.09703911675347
 20
-18.56711154513889
 10
26.09703911675347
 20
-18.54844835069444
 10
26.09703911675347
 20
-18.51178656684028
 10
26.08669704861111
 20
-18.48562282986111
 10
26.0660400390625
 20
-18.46994357638889
 10
26.04536946614583
 20
-18.45429144965278
 10
26.01803927951389
 20
-18.44643825954861
 10
25.98404269748264
 20
-18.44643825954861
 10
25.98404269748264
 20
-18.44643825954861
 10
25.81304253472222
 20
-18.44643825954861
 10
25.81304253472222
 20
-18.44643825954861
 10
25.81304253472222
 20
-18.44643825954861
 10
25.81304253472222
 20
-18.64244249131944
 10
25.81304253472222
 20
-18.64244249131944
 10
25.81304253472222
 20
-18.64244249131944
 10
25.98103841145833
 20
-18.64244249131944
 10
25.98103841145833
 20
-18.64244249131944
 97
        0
 97
        0
 75
     2
 76
     1
 98
        0
  0
ENDBLK
  5
DC
330
D9
100
AcDbEntity
  8
0
100
AcDbBlockEnd
  0
BLOCK
  5
106
330
104
100
AcDbEntity
  8
0
100
AcDbBlockBegin
  2
block 5
 70
     0
 10
0.0
 20
0.0
 30
0.0
  3
block 5
  1

  0
SPLINE
  5
108
330
104
100
AcDbEntity
  8
Layer 1
370
     0
100
AcDbSpline
210
0.0
220
0.0
230
1.0
 70
    11
 71
     3
 72
   101
 73
    97
 74
     0
 42
0.0000000001
 43
0.0000000001
 12
1.0
 22
0.0
 32
0.0
 13
1.0
 23
0.0
 33
0.0
 40
0.0
 40
0.0
 40
0.0
 40
0.0
 40
1.0
 40
1.0
 40
1.0
 40
2.0
 40
2.0
 40
2.0
 40
3.0
 40
3.0
 40
3.0
 40
4.0
 40
4.0
 40
4.0
 40
5.0
 40
5.0
 40
5.0
 40
6.0
 40
6.0
 40
6.0
 40
7.0
 40
7.0
 40
7.0
 40
8.0
 40
8.0
 40
8.0
 40
9.0
 40
9.0
 40
9.0
 40
10.0
 40
10.0
 40
10.0
 40
11.0
 40
11.0
 40
11.0
 40
12.0
 40
12.0
 40
12.0
 40
13.0
 40
13.0
 40
13.0
 40
14.0
 40
14.0
 40
14.0
 40
15.0
 40
15.0
 40
15.0
 40
16.0
 40
16.0
 40
16.0
 40
17.0
 40
17.0
 40
17.0
 40
18.0
 40
18.0
 40
18.0
 40
19.0
 40
19.0
 40
19.0
 40
20.0
 40
20.0
 40
20.0
 40
21.0
 40
21.0
 40
21.0
 40
22.0
 40
22.0
 40
22.0
 40
23.0
 40
23.0
 40
23.0
 40
24.0
 40
24.0
 40
24.0
 40
25.0
 40
25.0
 40
25.0
 40
26.0
 40
26.0
 40
26.0
 40
27.0
 40
27.0
 40
27.0
 40
28.0
 40
28.0
 40
28.0
 40
29.0
 40
29.0
 40
29.0
 40
30.0
 40
30.0
 40
30.0
 40
31.0
 40
31.0
 40
31.0
 40
32.0
 40
32.0
 40
32.0
 40
32.0
 10
56.83165147569444
 20
-18.24093967013889
 30
0.0
 10
56.82230631510416
 20
-18.22593858506944
 30
0.0
 10
56.81065538194444
 20
-18.21278211805555
 30
0.0
 10
56.79665798611111
 20
-18.20144314236111
 30
0.0
 10
56.78264702690972
 20
-18.19011773003472
 30
0.0
 10
56.76680501302083
 20
-18.18128797743055
 30
0.0
 10
56.7491455078125
 20
-18.17494032118055
 30
0.0
 10
56.73147243923611
 20
-18.16861979166666
 30
0.0
 10
56.71297200520833
 20
-18.16544596354166
 30
0.0
 10
56.69365776909722
 20
-18.16544596354166
 30
0.0
 10
56.65831163194444
 20
-18.16544596354166
 30
0.0
 10
56.62830946180555
 20
-18.17229546440972
 30
0.0
 10
56.60365125868055
 20
-18.18594021267361
 30
0.0
 10
56.5789794921875
 20
-18.19961208767361
 30
0.0
 10
56.55897352430555
 20
-18.21794976128472
 30
0.0
 10
56.54364691840277
 20
-18.24093967013889
 30
0.0
 10
56.52830674913194
 20
-18.26394314236111
 30
0.0
 10
56.51714409722222
 20
-18.29012044270833
 30
0.0
 10
56.51014539930555
 20
-18.31944444444444
 30
0.0
 10
56.50314670138889
 20
-18.34878200954861
 30
0.0
 10
56.49964735243055
 20
-18.37912326388889
 30
0.0
 10
56.49964735243055
 20
-18.41044108072916
 30
0.0
 10
56.49964735243055
 20
-18.44044325086805
 30
0.0
 10
56.50314670138889
 20
-18.46961805555555
 30
0.0
 10
56.51014539930555
 20
-18.49793836805555
 30
0.0
 10
56.51714409722222
 20
-18.52628580729166
 30
0.0
 10
56.52830674913194
 20
-18.55178493923611
 30
0.0
 10
56.54364691840277
 20
-18.57444932725694
 30
0.0
 10
56.55897352430555
 20
-18.59711371527778
 30
0.0
 10
56.5789794921875
 20
-18.61528862847222
 30
0.0
 10
56.60365125868055
 20
-18.62894694010416
 30
0.0
 10
56.62830946180555
 20
-18.64261881510416
 30
0.0
 10
56.65831163194444
 20
-18.64944118923611
 30
0.0
 10
56.69365776909722
 20
-18.64944118923611
 30
0.0
 10
56.74164496527777
 20
-18.64944118923611
 30
0.0
 10
56.77914767795139
 20
-18.63479275173611
 30
0.0
 10
56.80615234375
 20
-18.60544162326389
 30
0.0
 10
56.83315700954861
 20
-18.57611762152778
 30
0.0
 10
56.84965006510416
 20
-18.53744845920139
 30
0.0
 10
56.85564507378472
 20
-18.48944769965278
 30
0.0
 10
56.85564507378472
 20
-18.48944769965278
 30
0.0
 10
57.00764973958333
 20
-18.48944769965278
 30
0.0
 10
57.00764973958333
 20
-18.48944769965278
 30
0.0
 10
57.00364854600694
 20
-18.53411187065972
 30
0.0
 10
56.99331325954861
 20
-18.57444932725694
 30
0.0
 10
56.97664388020833
 20
-18.61044650607639
 30
0.0
 10
56.95997450086805
 20
-18.64644368489583
 30
0.0
 10
56.93797471788194
 20
-18.67711046006944
 30
0.0
 10
56.91064453125
 20
-18.70244683159722
 30
0.0
 10
56.88330078125
 20
-18.727783203125
 30
0.0
 10
56.85130479600694
 20
-18.74711100260416
 30
0.0
 10
56.81465657552083
 20
-18.76044379340278
 30
0.0
 10
56.77798122829861
 20
-18.77377658420139
 30
0.0
 10
56.73765733506944
 20
-18.78044976128472
 30
0.0
 10
56.69365776909722
 20
-18.78044976128472
 30
0.0
 10
56.63898383246527
 20
-18.78044976128472
 30
0.0
 10
56.58980305989583
 20
-18.77094184027778
 30
0.0
 10
56.54615614149305
 20
-18.75193956163194
 30
0.0
 10
56.50248209635416
 20
-18.73295084635416
 30
0.0
 10
56.46565755208333
 20
-18.706787109375
 30
0.0
 10
56.43565538194444
 20
-18.67344835069444
 30
0.0
 10
56.40565321180555
 20
-18.64012315538194
 30
0.0
 10
56.38264973958333
 20
-18.60093858506944
 30
0.0
 10
56.36664496527777
 20
-18.55594889322916
 30
0.0
 10
56.35065375434027
 20
-18.51094563802083
 30
0.0
 10
56.3426513671875
 20
-18.46244303385416
 30
0.0
 10
56.3426513671875
 20
-18.41044108072916
 30
0.0
 10
56.3426513671875
 20
-18.35712348090278
 30
0.0
 10
56.35065375434027
 20
-18.3076171875
 30
0.0
 10
56.36664496527777
 20
-18.26194932725694
 30
0.0
 10
56.38264973958333
 20
-18.21629503038194
 30
0.0
 10
56.40565321180555
 20
-18.17644585503472
 30
0.0
 10
56.43565538194444
 20
-18.14244249131944
 30
0.0
 10
56.46565755208333
 20
-18.10843912760416
 30
0.0
 10
56.50248209635416
 20
-18.081787109375
 30
0.0
 10
56.54615614149305
 20
-18.06244574652778
 30
0.0
 10
56.58980305989583
 20
-18.04311794704861
 30
0.0
 10
56.63898383246527
 20
-18.033447265625
 30
0.0
 10
56.69365776909722
 20
-18.033447265625
 30
0.0
 10
56.73297797309027
 20
-18.033447265625
 30
0.0
 10
56.77015516493055
 20
-18.03911675347222
 30
0.0
 10
56.80514865451389
 20
-18.05044216579861
 30
0.0
 10
56.84015570746527
 20
-18.06179470486111
 30
0.0
 10
56.87147352430555
 20
-18.07828776041666
 30
0.0
 10
56.89915635850694
 20
-18.09994845920139
 30
0.0
 10
56.92681206597222
 20
-18.12162272135416
 30
0.0
 10
56.94965277777777
 20
-18.14845106336805
 30
0.0
 10
56.9676513671875
 20
-18.18044704861111
 30
0.0
 10
56.98564995659722
 20
-18.21244303385416
 30
0.0
 10
56.99697536892361
 20
-18.24911838107639
 30
0.0
 10
57.00165473090277
 20
-18.29044596354166
 30
0.0
 10
57.00165473090277
 20
-18.29044596354166
 30
0.0
 10
56.84965006510416
 20
-18.29044596354166
 30
0.0
 10
56.84965006510416
 20
-18.29044596354166
 30
0.0
 10
56.84697808159722
 20
-18.27244737413194
 30
0.0
 10
56.84098307291666
 20
-18.25594075520833
 30
0.0
 10
56.83165147569444
 20
-18.24093967013889
 30
0.0
  0
HATCH
  5
109
330
104
100
AcDbEntity
  8
Layer 1
 62
    22
420
 15540772
100
AcDbHatch
 10
0.0
 20
0.0
 30
0.0
210
0.0
220
0.0
230
1.0
  2
SOLID
 70
     1
 71
     0
 91
        1
 92
        1
 93
        1
 72
     4
 94
        3
 73
     0
 74
     1
 95
      101
 96
       97
 40
0.0
 40
0.0
 40
0.0
 40
0.0
 40
1.0
 40
1.0
 40
1.0
 40
2.0
 40
2.0
 40
2.0
 40
3.0
 40
3.0
 40
3.0
 40
4.0
 40
4.0
 40
4.0
 40
5.0
 40
5.0
 40
5.0
 40
6.0
 40
6.0
 40
6.0
 40
7.0
 40
7.0
 40
7.0
 40
8.0
 40
8.0
 40
8.0
 40
9.0
 40
9.0
 40
9.0
 40
10.0
 40
10.0
 40
10.0
 40
11.0
 40
11.0
 40
11.0
 40
12.0
 40
12.0
 40
12.0
 40
13.0
 40
13.0
 40
13.0
 40
14.0
 40
14.0
 40
14.0
 40
15.0
 40
15.0
 40
15.0
 40
16.0
 40
16.0
 40
16.0
 40
17.0
 40
17.0
 40
17.0
 40
18.0
 40
18.0
 40
18.0
 40
19.0
 40
19.0
 40
19.0
 40
20.0
 40
20.0
 40
20.0
 40
21.0
 40
21.0
 40
21.0
 40
22.0
 40
22.0
 40
22.0
 40
23.0
 40
23.0
 40
23.0
 40
24.0
 40
24.0
 40
24.0
 40
25.0
 40
25.0
 40
25.0
 40
26.0
 40
26.0
 40
26.0
 40
27.0
 40
27.0
 40
27.0
 40
28.0
 40
28.0
 40
28.0
 40
29.0
 40
29.0
 40
29.0
 40
30.0
 40
30.0
 40
30.0
 40
31.0
 40
31.0
 40
31.0
 40
32.0
 40
32.0
 40
32.0
 40
32.0
 10
56.83165147569444
 20
-18.24093967013889
 10
56.82230631510416
 20
-18.22593858506944
 10
56.81065538194444
 20
-18.21278211805555
 10
56.79665798611111
 20
-18.20144314236111
 10
56.78264702690972
 20
-18.19011773003472
 10
56.76680501302083
 20
-18.18128797743055
 10
56.7491455078125
 20
-18.17494032118055
 10
56.73147243923611
 20
-18.16861979166666
 10
56.71297200520833
 20
-18.16544596354166
 10
56.69365776909722
 20
-18.16544596354166
 10
56.65831163194444
 20
-18.16544596354166
 10
56.62830946180555
 20
-18.17229546440972
 10
56.60365125868055
 20
-18.18594021267361
 10
56.5789794921875
 20
-18.19961208767361
 10
56.55897352430555
 20
-18.21794976128472
 10
56.54364691840277
 20
-18.24093967013889
 10
56.52830674913194
 20
-18.26394314236111
 10
56.51714409722222
 20
-18.29012044270833
 10
56.51014539930555
 20
-18.31944444444444
 10
56.50314670138889
 20
-18.34878200954861
 10
56.49964735243055
 20
-18.37912326388889
 10
56.49964735243055
 20
-18.41044108072916
 10
56.49964735243055
 20
-18.44044325086805
 10
56.50314670138889
 20
-18.46961805555555
 10
56.51014539930555
 20
-18.49793836805555
 10
56.51714409722222
 20
-18.52628580729166
 10
56.52830674913194
 20
-18.55178493923611
 10
56.54364691840277
 20
-18.57444932725694
 10
56.55897352430555
 20
-18.59711371527778
 10
56.5789794921875
 20
-18.61528862847222
 10
56.60365125868055
 20
-18.62894694010416
 10
56.62830946180555
 20
-18.64261881510416
 10
56.65831163194444
 20
-18.64944118923611
 10
56.69365776909722
 20
-18.64944118923611
 10
56.74164496527777
 20
-18.64944118923611
 10
56.77914767795139
 20
-18.63479275173611
 10
56.80615234375
 20
-18.60544162326389
 10
56.83315700954861
 20
-18.57611762152778
 10
56.84965006510416
 20
-18.53744845920139
 10
56.85564507378472
 20
-18.48944769965278
 10
56.85564507378472
 20
-18.48944769965278
 10
57.00764973958333
 20
-18.48944769965278
 10
57.00764973958333
 20
-18.48944769965278
 10
57.00364854600694
 20
-18.53411187065972
 10
56.99331325954861
 20
-18.57444932725694
 10
56.97664388020833
 20
-18.61044650607639
 10
56.95997450086805
 20
-18.64644368489583
 10
56.93797471788194
 20
-18.67711046006944
 10
56.91064453125
 20
-18.70244683159722
 10
56.88330078125
 20
-18.727783203125
 10
56.85130479600694
 20
-18.74711100260416
 10
56.81465657552083
 20
-18.76044379340278
 10
56.77798122829861
 20
-18.77377658420139
 10
56.73765733506944
 20
-18.78044976128472
 10
56.69365776909722
 20
-18.78044976128472
 10
56.63898383246527
 20
-18.78044976128472
 10
56.58980305989583
 20
-18.77094184027778
 10
56.54615614149305
 20
-18.75193956163194
 10
56.50248209635416
 20
-18.73295084635416
 10
56.46565755208333
 20
-18.706787109375
 10
56.43565538194444
 20
-18.67344835069444
 10
56.40565321180555
 20
-18.64012315538194
 10
56.38264973958333
 20
-18.60093858506944
 10
56.36664496527777
 20
-18.55594889322916
 10
56.35065375434027
 20
-18.51094563802083
 10
56.3426513671875
 20
-18.46244303385416
 10
56.3426513671875
 20
-18.41044108072916
 10
56.3426513671875
 20
-18.35712348090278
 10
56.35065375434027
 20
-18.3076171875
 10
56.36664496527777
 20
-18.26194932725694
 10
56.38264973958333
 20
-18.21629503038194
 10
56.40565321180555
 20
-18.17644585503472
 10
56.43565538194444
 20
-18.14244249131944
 10
56.46565755208333
 20
-18.10843912760416
 10
56.50248209635416
 20
-18.081787109375
 10
56.54615614149305
 20
-18.06244574652778
 10
56.58980305989583
 20
-18.04311794704861
 10
56.63898383246527
 20
-18.033447265625
 10
56.69365776909722
 20
-18.033447265625
 10
56.73297797309027
 20
-18.033447265625
 10
56.77015516493055
 20
-18.03911675347222
 10
56.80514865451389
 20
-18.05044216579861
 10
56.84015570746527
 20
-18.06179470486111
 10
56.87147352430555
 20
-18.07828776041666
 10
56.89915635850694
 20
-18.09994845920139
 10
56.92681206597222
 20
-18.12162272135416
 10
56.94965277777777
 20
-18.14845106336805
 10
56.9676513671875
 20
-18.18044704861111
 10
56.98564995659722
 20
-18.21244303385416
 10
56.99697536892361
 20
-18.24911838107639
 10
57.00165473090277
 20
-18.29044596354166
 10
57.00165473090277
 20
-18.29044596354166
 10
56.84965006510416
 20
-18.29044596354166
 10
56.84965006510416
 20
-18.29044596354166
 10
56.84697808159722
 20
-18.27244737413194
 10
56.84098307291666
 20
-18.25594075520833
 10
56.83165147569444
 20
-18.24093967013889
 97
        0
 97
        0
 75
     2
 76
     1
 98
        0
  0
ENDBLK
  5
107
330
104
100
AcDbEntity
  8
0
100
AcDbBlockEnd
  0
BLOCK
  5
10C
330
10A
100
AcDbEntity
  8
0
100
AcDbBlockBegin
  2
block 6
 70
     0
 10
0.0
 20
0.0
 30
0.0
  3
block 6
  1

  0
POLYLINE
  5
10E
330
10A
100
AcDbEntity
  8
Layer 1
370
     0
100
AcDb2dPolyline
 66
     1
 10
0.0
 20
0.0
 30
0.0
  0
VERTEX
  5
10F
330
10E
100
AcDbEntity
  8
Layer 1
370
     0
100
AcDbVertex
100
AcDb2dVertex
 10
77.0057644314236
 20
-5.2113037109375
 30
0.0
  0
VERTEX
  5
110
330
10E
100
AcDbEntity
  8
Layer 1
370
     0
100
AcDbVertex
100
AcDb2dVertex
 10
77.0057644314236
 20
-5.123291015625
 30
0.0
  0
VERTEX
  5
111
330
10E
100
AcDbEntity
  8
Layer 1
370
     0
100
AcDbVertex
100
AcDb2dVertex
 10
77.39576551649306
 20
-5.123291015625
 30
0.0
  0
VERTEX
  5
112
330
10E
100
AcDbEntity
  8
Layer 1
370
     0
100
AcDbVertex
100
AcDb2dVertex
 10
77.39576551649306
 20
-5.2113037109375
 30
0.0
  0
VERTEX
  5
113
330
10E
100
AcDbEntity
  8
Layer 1
370
     0
100
AcDbVertex
100
AcDb2dVertex
 10
77.25309244791666
 20
-5.2113037109375
 30
0.0
  0
VERTEX
  5
114
330
10E
100
AcDbEntity
  8
Layer 1
370
     0
100
AcDbVertex
100
AcDb2dVertex
 10
77.25309244791666
 20
-5.599297417534722
 30
0.0
  0
VERTEX
  5
115
330
10E
100
AcDbEntity
  8
Layer 1
370
     0
100
AcDbVertex
100
AcDb2dVertex
 10
77.14842393663194
 20
-5.599297417534722
 30
0.0
  0
VERTEX
  5
116
330
10E
100
AcDbEntity
  8
Layer 1
370
     0
100
AcDbVertex
100
AcDb2dVertex
 10
77.14842393663194
 20
-5.2113037109375
 30
0.0
  0
VERTEX
  5
117
330
10E
100
AcDbEntity
  8
Layer 1
370
     0
100
AcDbVertex
100
AcDb2dVertex
 10
77.0057644314236
 20
-5.2113037109375
 30
0.0
  0
SEQEND
  5
118
330
10E
100
AcDbEntity
  8
Layer 1
370
     0
  0
HATCH
  5
119
330
10A
100
AcDbEntity
  8
Layer 1
 62
    22
420
 15540772
100
AcDbHatch
 10
0.0
 20
0.0
 30
0.0
210
0.0
220
0.0
230
1.0
  2
SOLID
 70
     1
 71
     0
 91
        1
 92
        1
 93
        8
 72
     1
 10
77.0057644314236
 20
-5.2113037109375
 11
77.0057644314236
 21
-5.123291015625
 72
     1
 10
77.0057644314236
 20
-5.123291015625
 11
77.39576551649306
 21
-5.123291015625
 72
     1
 10
77.39576551649306
 20
-5.123291015625
 11
77.39576551649306
 21
-5.2113037109375
 72
     1
 10
77.39576551649306
 20
-5.2113037109375
 11
77.25309244791666
 21
-5.2113037109375
 72
     1
 10
77.25309244791666
 20
-5.2113037109375
 11
77.25309244791666
 21
-5.599297417534722
 72
     1
 10
77.25309244791666
 20
-5.599297417534722
 11
77.14842393663194
 21
-5.599297417534722
 72
     1
 10
77.14842393663194
 20
-5.599297417534722
 11
77.14842393663194
 21
-5.2113037109375
 72
     1
 10
77.14842393663194
 20
-5.2113037109375
 11
77.0057644314236
 21
-5.2113037109375
 97
        0
 75
     2
 76
     1
 98
        0
  0
ENDBLK
  5
10D
330
10A
100
AcDbEntity
  8
0
100
AcDbBlockEnd
  0
BLOCK
  5
127
330
125
100
AcDbEntity
  8
0
100
AcDbBlockBegin
  2
block 7
 70
     0
 10
0.0
 20
0.0
 30
0.0
  3
block 7
  1

  0
POLYLINE
  5
129
330
125
100
AcDbEntity
  8
Layer 1
370
     0
100
AcDb2dPolyline
 66
     1
 10
0.0
 20
0.0
 30
0.0
  0
VERTEX
  5
12A
330
129
100
AcDbEntity
  8
Layer 1
370
     0
100
AcDbVertex
100
AcDb2dVertex
 10
78.95020887586806
 20
-5.2113037109375
 30
0.0
  0
VERTEX
  5
12B
330
129
100
AcDbEntity
  8
Layer 1
370
     0
100
AcDbVertex
100
AcDb2dVertex
 10
78.95020887586806
 20
-5.123291015625
 30
0.0
  0
VERTEX
  5
12C
330
129
100
AcDbEntity
  8
Layer 1
370
     0
100
AcDbVertex
100
AcDb2dVertex
 10
79.3402099609375
 20
-5.123291015625
 30
0.0
  0
VERTEX
  5
12D
330
129
100
AcDbEntity
  8
Layer 1
370
     0
100
AcDbVertex
100
AcDb2dVertex
 10
79.3402099609375
 20
-5.2113037109375
 30
0.0
  0
VERTEX
  5
12E
330
129
100
AcDbEntity
  8
Layer 1
370
     0
100
AcDbVertex
100
AcDb2dVertex
 10
79.1975368923611
 20
-5.2113037109375
 30
0.0
  0
VERTEX
  5
12F
330
129
100
AcDbEntity
  8
Layer 1
370
     0
100
AcDbVertex
100
AcDb2dVertex
 10
79.1975368923611
 20
-5.599297417534722
 30
0.0
  0
VERTEX
  5
130
330
129
100
AcDbEntity
  8
Layer 1
370
     0
100
AcDbVertex
100
AcDb2dVertex
 10
79.09286838107639
 20
-5.599297417534722
 30
0.0
  0
VERTEX
  5
131
330
129
100
AcDbEntity
  8
Layer 1
370
     0
100
AcDbVertex
100
AcDb2dVertex
 10
79.09286838107639
 20
-5.2113037109375
 30
0.0
  0
VERTEX
  5
132
330
129
100
AcDbEntity
  8
Layer 1
370
     0
100
AcDbVertex
100
AcDb2dVertex
 10
78.95020887586806
 20
-5.2113037109375
 30
0.0
  0
SEQEND
  5
133
330
129
100
AcDbEntity
  8
Layer 1
370
     0
  0
HATCH
  5
134
330
125
100
AcDbEntity
  8
Layer 1
 62
    22
420
 15540772
100
AcDbHatch
 10
0.0
 20
0.0
 30
0.0
210
0.0
220
0.0
230
1.0
  2
SOLID
 70
     1
 71
     0
 91
        1
 92
        1
 93
        8
 72
     1
 10
78.95020887586806
 20
-5.2113037109375
 11
78.95020887586806
 21
-5.123291015625
 72
     1
 10
78.95020887586806
 20
-5.123291015625
 11
79.3402099609375
 21
-5.123291015625
 72
     1
 10
79.3402099609375
 20
-5.123291015625
 11
79.3402099609375
 21
-5.2113037109375
 72
     1
 10
79.3402099609375
 20
-5.2113037109375
 11
79.1975368923611
 21
-5.2113037109375
 72
     1
 10
79.1975368923611
 20
-5.2113037109375
 11
79.1975368923611
 21
-5.599297417534722
 72
     1
 10
79.1975368923611
 20
-5.599297417534722
 11
79.09286838107639
 21
-5.599297417534722
 72
     1
 10
79.09286838107639
 20
-5.599297417534722
 11
79.09286838107639
 21
-5.2113037109375
 72
     1
 10
79.09286838107639
 20
-5.2113037109375
 11
78.95020887586806
 21
-5.2113037109375
 97
        0
 75
     2
 76
     1
 98
        0
  0
ENDBLK
  5
128
330
125
100
AcDbEntity
  8
0
100
AcDbBlockEnd
  0
BLOCK
  5
142
330
140
100
AcDbEntity
  8
0
100
AcDbBlockBegin
  2
block 8
 70
     0
 10
0.0
 20
0.0
 30
0.0
  3
block 8
  1

  0
POLYLINE
  5
144
330
140
100
AcDbEntity
  8
Layer 1
370
     0
100
AcDb2dPolyline
 66
     1
 10
0.0
 20
0.0
 30
0.0
  0
VERTEX
  5
145
330
144
100
AcDbEntity
  8
Layer 1
370
     0
100
AcDbVertex
100
AcDb2dVertex
 10
79.34016927083333
 20
-14.34773763020833
 30
0.0
  0
VERTEX
  5
146
330
144
100
AcDbEntity
  8
Layer 1
370
     0
100
AcDbVertex
100
AcDb2dVertex
 10
79.34016927083333
 20
-14.43575032552083
 30
0.0
  0
VERTEX
  5
147
330
144
100
AcDbEntity
  8
Layer 1
370
     0
100
AcDbVertex
100
AcDb2dVertex
 10
78.95016818576389
 20
-14.43575032552083
 30
0.0
  0
VERTEX
  5
148
330
144
100
AcDbEntity
  8
Layer 1
370
     0
100
AcDbVertex
100
AcDb2dVertex
 10
78.95016818576389
 20
-14.34773763020833
 30
0.0
  0
VERTEX
  5
149
330
144
100
AcDbEntity
  8
Layer 1
370
     0
100
AcDbVertex
100
AcDb2dVertex
 10
79.09284125434027
 20
-14.34773763020833
 30
0.0
  0
VERTEX
  5
14A
330
144
100
AcDbEntity
  8
Layer 1
370
     0
100
AcDbVertex
100
AcDb2dVertex
 10
79.09284125434027
 20
-13.95974392361111
 30
0.0
  0
VERTEX
  5
14B
330
144
100
AcDbEntity
  8
Layer 1
370
     0
100
AcDbVertex
100
AcDb2dVertex
 10
79.197509765625
 20
-13.95974392361111
 30
0.0
  0
VERTEX
  5
14C
330
144
100
AcDbEntity
  8
Layer 1
370
     0
100
AcDbVertex
100
AcDb2dVertex
 10
79.197509765625
 20
-14.34773763020833
 30
0.0
  0
VERTEX
  5
14D
330
144
100
AcDbEntity
  8
Layer 1
370
     0
100
AcDbVertex
100
AcDb2dVertex
 10
79.34016927083333
 20
-14.34773763020833
 30
0.0
  0
SEQEND
  5
14E
330
144
100
AcDbEntity
  8
Layer 1
370
     0
  0
HATCH
  5
14F
330
140
100
AcDbEntity
  8
Layer 1
 62
    22
420
 15540772
100
AcDbHatch
 10
0.0
 20
0.0
 30
0.0
210
0.0
220
0.0
230
1.0
  2
SOLID
 70
     1
 71
     0
 91
        1
 92
        1
 93
        8
 72
     1
 10
79.34016927083333
 20
-14.34773763020833
 11
79.34016927083333
 21
-14.43575032552083
 72
     1
 10
79.34016927083333
 20
-14.43575032552083
 11
78.95016818576389
 21
-14.43575032552083
 72
     1
 10
78.95016818576389
 20
-14.43575032552083
 11
78.95016818576389
 21
-14.34773763020833
 72
     1
 10
78.95016818576389
 20
-14.34773763020833
 11
79.09284125434027
 21
-14.34773763020833
 72
     1
 10
79.09284125434027
 20
-14.34773763020833
 11
79.09284125434027
 21
-13.95974392361111
 72
     1
 10
79.09284125434027
 20
-13.95974392361111
 11
79.197509765625
 21
-13.95974392361111
 72
     1
 10
79.197509765625
 20
-13.95974392361111
 11
79.197509765625
 21
-14.34773763020833
 72
     1
 10
79.197509765625
 20
-14.34773763020833
 11
79.34016927083333
 21
-14.34773763020833
 97
        0
 75
     2
 76
     1
 98
        0
  0
ENDBLK
  5
143
330
140
100
AcDbEntity
  8
0
100
AcDbBlockEnd
  0
BLOCK
  5
15D
330
15B
100
AcDbEntity
  8
0
100
AcDbBlockBegin
  2
block 9
 70
     0
 10
0.0
 20
0.0
 30
0.0
  3
block 9
  1

  0
POLYLINE
  5
15F
330
15B
100
AcDbEntity
  8
Layer 1
370
     0
100
AcDb2dPolyline
 66
     1
 10
0.0
 20
0.0
 30
0.0
  0
VERTEX
  5
160
330
15F
100
AcDbEntity
  8
Layer 1
370
     0
100
AcDbVertex
100
AcDb2dVertex
 10
77.39572482638889
 20
-14.34773763020833
 30
0.0
  0
VERTEX
  5
161
330
15F
100
AcDbEntity
  8
Layer 1
370
     0
100
AcDbVertex
100
AcDb2dVertex
 10
77.39572482638889
 20
-14.43575032552083
 30
0.0
  0
VERTEX
  5
162
330
15F
100
AcDbEntity
  8
Layer 1
370
     0
100
AcDbVertex
100
AcDb2dVertex
 10
77.00572374131944
 20
-14.43575032552083
 30
0.0
  0
VERTEX
  5
163
330
15F
100
AcDbEntity
  8
Layer 1
370
     0
100
AcDbVertex
100
AcDb2dVertex
 10
77.00572374131944
 20
-14.34773763020833
 30
0.0
  0
VERTEX
  5
164
330
15F
100
AcDbEntity
  8
Layer 1
370
     0
100
AcDbVertex
100
AcDb2dVertex
 10
77.14839680989583
 20
-14.34773763020833
 30
0.0
  0
VERTEX
  5
165
330
15F
100
AcDbEntity
  8
Layer 1
370
     0
100
AcDbVertex
100
AcDb2dVertex
 10
77.14839680989583
 20
-13.95974392361111
 30
0.0
  0
VERTEX
  5
166
330
15F
100
AcDbEntity
  8
Layer 1
370
     0
100
AcDbVertex
100
AcDb2dVertex
 10
77.25306532118056
 20
-13.95974392361111
 30
0.0
  0
VERTEX
  5
167
330
15F
100
AcDbEntity
  8
Layer 1
370
     0
100
AcDbVertex
100
AcDb2dVertex
 10
77.25306532118056
 20
-14.34773763020833
 30
0.0
  0
VERTEX
  5
168
330
15F
100
AcDbEntity
  8
Layer 1
370
     0
100
AcDbVertex
100
AcDb2dVertex
 10
77.39572482638889
 20
-14.34773763020833
 30
0.0
  0
SEQEND
  5
169
330
15F
100
AcDbEntity
  8
Layer 1
370
     0
  0
HATCH
  5
16A
330
15B
100
AcDbEntity
  8
Layer 1
 62
    22
420
 15540772
100
AcDbHatch
 10
0.0
 20
0.0
 30
0.0
210
0.0
220
0.0
230
1.0
  2
SOLID
 70
     1
 71
     0
 91
        1
 92
        1
 93
        8
 72
     1
 10
77.39572482638889
 20
-14.34773763020833
 11
77.39572482638889
 21
-14.43575032552083
 72
     1
 10
77.39572482638889
 20
-14.43575032552083
 11
77.00572374131944
 21
-14.43575032552083
 72
     1
 10
77.00572374131944
 20
-14.43575032552083
 11
77.00572374131944
 21
-14.34773763020833
 72
     1
 10
77.00572374131944
 20
-14.34773763020833
 11
77.14839680989583
 21
-14.34773763020833
 72
     1
 10
77.14839680989583
 20
-14.34773763020833
 11
77.14839680989583
 21
-13.95974392361111
 72
     1
 10
77.14839680989583
 20
-13.95974392361111
 11
77.25306532118056
 21
-13.95974392361111
 72
     1
 10
77.25306532118056
 20
-13.95974392361111
 11
77.25306532118056
 21
-14.34773763020833
 72
     1
 10
77.25306532118056
 20
-14.34773763020833
 11
77.39572482638889
 21
-14.34773763020833
 97
        0
 75
     2
 76
     1
 98
        0
  0
ENDBLK
  5
15E
330
15B
100
AcDbEntity
  8
0
100
AcDbBlockEnd
  0
ENDSEC
  0
SECTION
  2
ENTITIES
  0
POLYLINE
  5
41
330
1F
100
AcDbEntity
  8
Layer 1
 62
   179
420
  2301728
370
    35
100
AcDb2dPolyline
 66
     1
 10
0.0
 20
0.0
 30
0.0
  0
VERTEX
  5
42
330
41
100
AcDbEntity
  8
Layer 1
 62
   179
420
  2301728
370
    35
100
AcDbVertex
100
AcDb2dVertex
 10
20.02216279885693
 20
-0.6736740628302363
 30
0.0
  0
VERTEX
  5
43
330
41
100
AcDbEntity
  8
Layer 1
 62
   179
420
  2301728
370
    35
100
AcDbVertex
100
AcDb2dVertex
 10
6.743374550159008
 20
-0.6736740628302363
 30
0.0
  0
VERTEX
  5
44
330
41
100
AcDbEntity
  8
Layer 1
 62
   179
420
  2301728
370
    35
100
AcDbVertex
100
AcDb2dVertex
 10
4.119737668648591
 20
-0.6736740628302363
 30
0.0
  0
VERTEX
  5
45
330
41
100
AcDbEntity
  8
Layer 1
 62
   179
420
  2301728
370
    35
100
AcDbVertex
100
AcDb2dVertex
 10
4.119737668648591
 20
-2.979229618385792
 30
0.0
  0
VERTEX
  5
46
330
41
100
AcDbEntity
  8
Layer 1
 62
   179
420
  2301728
370
    35
100
AcDbVertex
100
AcDb2dVertex
 10
4.119737668648591
 20
-16.97922961838579
 30
0.0
  0
VERTEX
  5
47
330
41
100
AcDbEntity
  8
Layer 1
 62
   179
420
  2301728
370
    35
100
AcDbVertex
100
AcDb2dVertex
 10
4.119737668648591
 20
-19.42367406283023
 30
0.0
  0
VERTEX
  5
48
330
41
100
AcDbEntity
  8
Layer 1
 62
   179
420
  2301728
370
    35
100
AcDbVertex
100
AcDb2dVertex
 10
23.45307100198193
 20
-19.42367406283023
 30
0.0
  0
VERTEX
  5
49
330
41
100
AcDbEntity
  8
Layer 1
 62
   179
420
  2301728
370
    35
100
AcDbVertex
100
AcDb2dVertex
 10
23.45307100198193
 20
-16.97922961838579
 30
0.0
  0
VERTEX
  5
4A
330
41
100
AcDbEntity
  8
Layer 1
 62
   179
420
  2301728
370
    35
100
AcDbVertex
100
AcDb2dVertex
 10
23.45307100198193
 20
-2.979229618385792
 30
0.0
  0
VERTEX
  5
4B
330
41
100
AcDbEntity
  8
Layer 1
 62
   179
420
  2301728
370
    35
100
AcDbVertex
100
AcDb2dVertex
 10
23.45307100198193
 20
-0.6736740628302363
 30
0.0
  0
VERTEX
  5
4C
330
41
100
AcDbEntity
  8
Layer 1
 62
   179
420
  2301728
370
    35
100
AcDbVertex
100
AcDb2dVertex
 10
20.02216279885693
 20
-0.6736740628302363
 30
0.0
  0
SEQEND
  5
4D
330
41
100
AcDbEntity
  8
Layer 1
 62
   179
420
  2301728
370
    35
  0
POLYLINE
  5
4E
330
1F
100
AcDbEntity
  8
Layer 1
 62
   179
420
  2301728
370
    35
100
AcDb2dPolyline
 66
     1
 10
0.0
 20
0.0
 30
0.0
  0
VERTEX
  5
4F
330
4E
100
AcDbEntity
  8
Layer 1
 62
   179
420
  2301728
370
    35
100
AcDbVertex
100
AcDb2dVertex
 10
17.1099008359663
 20
-0.9736754191670418
 30
0.0
  0
VERTEX
  5
50
330
4E
100
AcDbEntity
  8
Layer 1
 62
   179
420
  2301728
370
    35
100
AcDbVertex
100
AcDb2dVertex
 10
21.1599013445926
 20
-0.9736754191670418
 30
0.0
  0
VERTEX
  5
51
330
4E
100
AcDbEntity
  8
Layer 1
 62
   179
420
  2301728
370
    35
100
AcDbVertex
100
AcDb2dVertex
 10
21.1599013445926
 20
-1.263673791562875
 30
0.0
  0
VERTEX
  5
52
330
4E
100
AcDbEntity
  8
Layer 1
 62
   179
420
  2301728
370
    35
100
AcDbVertex
100
AcDb2dVertex
 10
17.1099008359663
 20
-1.263673791562875
 30
0.0
  0
VERTEX
  5
53
330
4E
100
AcDbEntity
  8
Layer 1
 62
   179
420
  2301728
370
    35
100
AcDbVertex
100
AcDb2dVertex
 10
17.1099008359663
 20
-0.9736754191670418
 30
0.0
  0
SEQEND
  5
54
330
4E
100
AcDbEntity
  8
Layer 1
 62
   179
420
  2301728
370
    35
  0
POLYLINE
  5
55
330
1F
100
AcDbEntity
  8
Layer 1
 62
   179
420
  2301728
370
    35
100
AcDb2dPolyline
 66
     1
 10
0.0
 20
0.0
 30
0.0
  0
VERTEX
  5
56
330
55
100
AcDbEntity
  8
Layer 1
 62
   179
420
  2301728
370
    35
100
AcDbVertex
100
AcDb2dVertex
 10
6.576568858969772
 20
-0.9736754191670418
 30
0.0
  0
VERTEX
  5
57
330
55
100
AcDbEntity
  8
Layer 1
 62
   179
420
  2301728
370
    35
100
AcDbVertex
100
AcDb2dVertex
 10
10.62656851988557
 20
-0.9736754191670418
 30
0.0
  0
VERTEX
  5
58
330
55
100
AcDbEntity
  8
Layer 1
 62
   179
420
  2301728
370
    35
100
AcDbVertex
100
AcDb2dVertex
 10
10.62656851988557
 20
-1.263673791562875
 30
0.0
  0
VERTEX
  5
59
330
55
100
AcDbEntity
  8
Layer 1
 62
   179
420
  2301728
370
    35
100
AcDbVertex
100
AcDb2dVertex
 10
6.576568858969772
 20
-1.263673791562875
 30
0.0
  0
VERTEX
  5
5A
330
55
100
AcDbEntity
  8
Layer 1
 62
   179
420
  2301728
370
    35
100
AcDbVertex
100
AcDb2dVertex
 10
6.576568858969772
 20
-0.9736754191670418
 30
0.0
  0
SEQEND
  5
5B
330
55
100
AcDbEntity
  8
Layer 1
 62
   179
420
  2301728
370
    35
  0
POLYLINE
  5
5C
330
1F
100
AcDbEntity
  8
Layer 1
 62
   179
420
  2301728
370
    35
100
AcDb2dPolyline
 66
     1
 10
0.0
 20
0.0
 30
0.0
  0
VERTEX
  5
5D
330
5C
100
AcDbEntity
  8
Layer 1
 62
   179
420
  2301728
370
    35
100
AcDbVertex
100
AcDb2dVertex
 10
4.665293631105189
 20
-16.21923002528683
 30
0.0
  0
VERTEX
  5
5E
330
5C
100
AcDbEntity
  8
Layer 1
 62
   179
420
  2301728
370
    35
100
AcDbVertex
100
AcDb2dVertex
 10
4.405293190295727
 20
-16.21923002528683
 30
0.0
  0
VERTEX
  5
5F
330
5C
100
AcDbEntity
  8
Layer 1
 62
   179
420
  2301728
370
    35
100
AcDbVertex
100
AcDb2dVertex
 10
4.405293190295727
 20
-5.029230974722597
 30
0.0
  0
VERTEX
  5
60
330
5C
100
AcDbEntity
  8
Layer 1
 62
   179
420
  2301728
370
    35
100
AcDbVertex
100
AcDb2dVertex
 10
4.665293631105189
 20
-5.024727936528152
 30
0.0
  0
VERTEX
  5
61
330
5C
100
AcDbEntity
  8
Layer 1
 62
   179
420
  2301728
370
    35
100
AcDbVertex
100
AcDb2dVertex
 10
4.665293631105189
 20
-16.21923002528683
 30
0.0
  0
SEQEND
  5
62
330
5C
100
AcDbEntity
  8
Layer 1
 62
   179
420
  2301728
370
    35
  0
SPLINE
  5
63
330
1F
100
AcDbEntity
  8
Layer 1
 62
   179
420
  2301728
370
    35
100
AcDbSpline
210
0.0
220
0.0
230
1.0
 70
    11
 71
     3
 72
    17
 73
    13
 74
     0
 42
0.0000000001
 43
0.0000000001
 12
1.0
 22
0.0
 32
0.0
 13
1.0
 23
0.0
 33
0.0
 40
0.0
 40
0.0
 40
0.0
 40
0.0
 40
1.0
 40
1.0
 40
1.0
 40
2.0
 40
2.0
 40
2.0
 40
3.0
 40
3.0
 40
3.0
 40
4.0
 40
4.0
 40
4.0
 40
4.0
 10
8.660646482125154
 20
-11.97922961838579
 30
0.0
 10
7.406708019126022
 20
-11.97922961838579
 30
0.0
 10
6.390191227676369
 20
-11.08379979525211
 30
0.0
 10
6.390191227676369
 20
-9.97922961838579
 30
0.0
 10
6.390191227676369
 20
-8.874659441519473
 30
0.0
 10
7.406708019126022
 20
-7.979229618385792
 30
0.0
 10
8.660646482125154
 20
-7.979229618385792
 30
0.0
 10
9.914584945124286
 20
-7.979229618385792
 30
0.0
 10
10.93110173657394
 20
-8.874659441519473
 30
0.0
 10
10.93110173657394
 20
-9.97922961838579
 30
0.0
 10
10.93110173657394
 20
-11.08379979525211
 30
0.0
 10
9.914584945124286
 20
-11.97922961838579
 30
0.0
 10
8.660646482125154
 20
-11.97922961838579
 30
0.0
  0
SPLINE
  5
64
330
1F
100
AcDbEntity
  8
Layer 1
 62
   179
420
  2301728
370
    35
100
AcDbSpline
210
0.0
220
0.0
230
1.0
 70
    11
 71
     3
 72
    17
 73
    13
 74
     0
 42
0.0000000001
 43
0.0000000001
 12
1.0
 22
0.0
 32
0.0
 13
1.0
 23
0.0
 33
0.0
 40
0.0
 40
0.0
 40
0.0
 40
0.0
 40
1.0
 40
1.0
 40
1.0
 40
2.0
 40
2.0
 40
2.0
 40
3.0
 40
3.0
 40
3.0
 40
4.0
 40
4.0
 40
4.0
 40
4.0
 10
18.91216218850536
 20
-11.97922961838579
 30
0.0
 10
17.65822372550623
 20
-11.97922961838579
 30
0.0
 10
16.64170693405658
 20
-11.08379979525211
 30
0.0
 10
16.64170693405658
 20
-9.97922961838579
 30
0.0
 10
16.64170693405658
 20
-8.874659441519473
 30
0.0
 10
17.65822372550623
 20
-7.979229618385792
 30
0.0
 10
18.91216218850536
 20
-7.979229618385792
 30
0.0
 10
20.16610065150449
 20
-7.979229618385792
 30
0.0
 10
21.18261659524364
 20
-8.874659441519473
 30
0.0
 10
21.18261659524364
 20
-9.97922961838579
 30
0.0
 10
21.18261659524364
 20
-11.08379979525211
 30
0.0
 10
20.16610065150449
 20
-11.97922961838579
 30
0.0
 10
18.91216218850536
 20
-11.97922961838579
 30
0.0
  0
POLYLINE
  5
65
330
1F
100
AcDbEntity
  8
Layer 1
 62
   179
420
  2301728
370
    35
100
AcDb2dPolyline
 66
     1
 10
0.0
 20
0.0
 30
0.0
  0
VERTEX
  5
66
330
65
100
AcDbEntity
  8
Layer 1
 62
   179
420
  2301728
370
    35
100
AcDbVertex
100
AcDb2dVertex
 10
23.16529363110519
 20
-16.21923002528683
 30
0.0
  0
VERTEX
  5
67
330
65
100
AcDbEntity
  8
Layer 1
 62
   179
420
  2301728
370
    35
100
AcDbVertex
100
AcDb2dVertex
 10
22.90529403800623
 20
-16.21923002528683
 30
0.0
  0
VERTEX
  5
68
330
65
100
AcDbEntity
  8
Layer 1
 62
   179
420
  2301728
370
    35
100
AcDbVertex
100
AcDb2dVertex
 10
22.90529403800623
 20
-5.029230974722597
 30
0.0
  0
VERTEX
  5
69
330
65
100
AcDbEntity
  8
Layer 1
 62
   179
420
  2301728
370
    35
100
AcDbVertex
100
AcDb2dVertex
 10
23.16529363110519
 20
-5.024727936528152
 30
0.0
  0
VERTEX
  5
6A
330
65
100
AcDbEntity
  8
Layer 1
 62
   179
420
  2301728
370
    35
100
AcDbVertex
100
AcDb2dVertex
 10
23.16529363110519
 20
-16.21923002528683
 30
0.0
  0
SEQEND
  5
6B
330
65
100
AcDbEntity
  8
Layer 1
 62
   179
420
  2301728
370
    35
  0
POLYLINE
  5
6C
330
1F
100
AcDbEntity
  8
Layer 1
 62
   179
420
  2301728
370
    35
100
AcDb2dPolyline
 66
     1
 10
0.0
 20
0.0
 30
0.0
  0
VERTEX
  5
6D
330
6C
100
AcDbEntity
  8
Layer 1
 62
   179
420
  2301728
370
    35
100
AcDbVertex
100
AcDb2dVertex
 10
75.22051688414338
 20
-17.34547785514794
 30
0.0
  0
VERTEX
  5
6E
330
6C
100
AcDbEntity
  8
Layer 1
 62
   179
420
  2301728
370
    35
100
AcDbVertex
100
AcDb2dVertex
 10
75.89828516756351
 20
-17.34547785514794
 30
0.0
  0
VERTEX
  5
6F
330
6C
100
AcDbEntity
  8
Layer 1
 62
   179
420
  2301728
370
    35
100
AcDbVertex
100
AcDb2dVertex
 10
75.89828516756351
 20
-13.34547785514794
 30
0.0
  0
VERTEX
  5
70
330
6C
100
AcDbEntity
  8
Layer 1
 62
   179
420
  2301728
370
    35
100
AcDbVertex
100
AcDb2dVertex
 10
75.22051688414338
 20
-13.34547785514794
 30
0.0
  0
VERTEX
  5
71
330
6C
100
AcDbEntity
  8
Layer 1
 62
   179
420
  2301728
370
    35
100
AcDbVertex
100
AcDb2dVertex
 10
75.22051688414338
 20
-6.812145878151417
 30
0.0
  0
VERTEX
  5
72
330
6C
100
AcDbEntity
  8
Layer 1
 62
   179
420
  2301728
370
    35
100
AcDbVertex
100
AcDb2dVertex
 10
75.89828516756351
 20
-6.812145878151417
 30
0.0
  0
VERTEX
  5
73
330
6C
100
AcDbEntity
  8
Layer 1
 62
   179
420
  2301728
370
    35
100
AcDbVertex
100
AcDb2dVertex
 10
75.89828516756351
 20
-2.812145878151417
 30
0.0
  0
VERTEX
  5
74
330
6C
100
AcDbEntity
  8
Layer 1
 62
   179
420
  2301728
370
    35
100
AcDbVertex
100
AcDb2dVertex
 10
75.22051688414338
 20
-2.812145878151417
 30
0.0
  0
VERTEX
  5
75
330
6C
100
AcDbEntity
  8
Layer 1
 62
   179
420
  2301728
370
    35
100
AcDbVertex
100
AcDb2dVertex
 10
75.22051688414338
 20
-0.3303140096618336
 30
0.0
  0
VERTEX
  5
76
330
6C
100
AcDbEntity
  8
Layer 1
 62
   179
420
  2301728
370
    35
100
AcDbVertex
100
AcDb2dVertex
 10
73.20515636982046
 20
-0.3303140096618336
 30
0.0
  0
VERTEX
  5
77
330
6C
100
AcDbEntity
  8
Layer 1
 62
   179
420
  2301728
370
    35
100
AcDbVertex
100
AcDb2dVertex
 10
60.96728880254616
 20
-0.3303140096618336
 30
0.0
  0
VERTEX
  5
78
330
6C
100
AcDbEntity
  8
Layer 1
 62
   179
420
  2301728
370
    35
100
AcDbVertex
100
AcDb2dVertex
 10
59.14996024351838
 20
-0.3303140096618336
 30
0.0
  0
VERTEX
  5
79
330
6C
100
AcDbEntity
  8
Layer 1
 62
   179
420
  2301728
370
    35
100
AcDbVertex
100
AcDb2dVertex
 10
59.14996024351838
 20
-19.66364734299517
 30
0.0
  0
VERTEX
  5
7A
330
6C
100
AcDbEntity
  8
Layer 1
 62
   179
420
  2301728
370
    35
100
AcDbVertex
100
AcDb2dVertex
 10
60.96728880254616
 20
-19.66364734299517
 30
0.0
  0
VERTEX
  5
7B
330
6C
100
AcDbEntity
  8
Layer 1
 62
   179
420
  2301728
370
    35
100
AcDbVertex
100
AcDb2dVertex
 10
73.20515636982046
 20
-19.66364734299517
 30
0.0
  0
VERTEX
  5
7C
330
6C
100
AcDbEntity
  8
Layer 1
 62
   179
420
  2301728
370
    35
100
AcDbVertex
100
AcDb2dVertex
 10
75.22051688414338
 20
-19.66364734299517
 30
0.0
  0
VERTEX
  5
7D
330
6C
100
AcDbEntity
  8
Layer 1
 62
   179
420
  2301728
370
    35
100
AcDbVertex
100
AcDb2dVertex
 10
75.22051688414338
 20
-17.34547785514794
 30
0.0
  0
SEQEND
  5
7E
330
6C
100
AcDbEntity
  8
Layer 1
 62
   179
420
  2301728
370
    35
  0
POLYLINE
  5
7F
330
1F
100
AcDbEntity
  8
Layer 1
 62
   179
420
  2301728
370
    35
100
AcDb2dPolyline
 66
     1
 10
0.0
 20
0.0
 30
0.0
  0
VERTEX
  5
80
330
7F
100
AcDbEntity
  8
Layer 1
 62
   179
420
  2301728
370
    35
100
AcDbVertex
100
AcDb2dVertex
 10
61.223843300159
 20
-0.883645172856278
 30
0.0
  0
VERTEX
  5
81
330
7F
100
AcDbEntity
  8
Layer 1
 62
   179
420
  2301728
370
    35
100
AcDbVertex
100
AcDb2dVertex
 10
61.2238670360531
 20
-0.6236489705993336
 30
0.0
  0
VERTEX
  5
82
330
7F
100
AcDbEntity
  8
Layer 1
 62
   179
420
  2301728
370
    35
100
AcDbVertex
100
AcDb2dVertex
 10
73.22715615280657
 20
-0.6236489705993336
 30
0.0
  0
VERTEX
  5
83
330
7F
100
AcDbEntity
  8
Layer 1
 62
   179
420
  2301728
370
    35
100
AcDbVertex
100
AcDb2dVertex
 10
73.22715615280657
 20
-0.883645172856278
 30
0.0
  0
VERTEX
  5
84
330
7F
100
AcDbEntity
  8
Layer 1
 62
   179
420
  2301728
370
    35
100
AcDbVertex
100
AcDb2dVertex
 10
61.223843300159
 20
-0.883645172856278
 30
0.0
  0
SEQEND
  5
85
330
7F
100
AcDbEntity
  8
Layer 1
 62
   179
420
  2301728
370
    35
  0
POLYLINE
  5
86
330
1F
100
AcDbEntity
  8
Layer 1
 62
   179
420
  2301728
370
    35
100
AcDb2dPolyline
 66
     1
 10
0.0
 20
0.0
 30
0.0
  0
VERTEX
  5
87
330
86
100
AcDbEntity
  8
Layer 1
 62
   179
420
  2301728
370
    35
100
AcDbVertex
100
AcDb2dVertex
 10
61.24008882424755
 20
-19.3558673950785
 30
0.0
  0
VERTEX
  5
88
330
86
100
AcDbEntity
  8
Layer 1
 62
   179
420
  2301728
370
    35
100
AcDbVertex
100
AcDb2dVertex
 10
61.2238670360531
 20
-19.09587119282155
 30
0.0
  0
VERTEX
  5
89
330
86
100
AcDbEntity
  8
Layer 1
 62
   179
420
  2301728
370
    35
100
AcDbVertex
100
AcDb2dVertex
 10
73.22715615280657
 20
-19.09587119282155
 30
0.0
  0
VERTEX
  5
8A
330
86
100
AcDbEntity
  8
Layer 1
 62
   179
420
  2301728
370
    35
100
AcDbVertex
100
AcDb2dVertex
 10
73.22715615280657
 20
-19.3558673950785
 30
0.0
  0
VERTEX
  5
8B
330
86
100
AcDbEntity
  8
Layer 1
 62
   179
420
  2301728
370
    35
100
AcDbVertex
100
AcDb2dVertex
 10
61.24008882424755
 20
-19.3558673950785
 30
0.0
  0
SEQEND
  5
8C
330
86
100
AcDbEntity
  8
Layer 1
 62
   179
420
  2301728
370
    35
  0
POLYLINE
  5
8D
330
1F
100
AcDbEntity
  8
Layer 1
 62
   179
420
  2301728
370
    35
100
AcDb2dPolyline
 66
     1
 10
0.0
 20
0.0
 30
0.0
  0
VERTEX
  5
8E
330
8D
100
AcDbEntity
  8
Layer 1
 62
   179
420
  2301728
370
    35
100
AcDbVertex
100
AcDb2dVertex
 10
77.94668745212438
 20
-2.237849657941979
 30
0.0
  0
VERTEX
  5
8F
330
8D
100
AcDbEntity
  8
Layer 1
 62
   179
420
  2301728
370
    35
100
AcDbVertex
100
AcDb2dVertex
 10
76.95480851874764
 20
-2.237849657941979
 30
0.0
  0
VERTEX
  5
90
330
8D
100
AcDbEntity
  8
Layer 1
 62
   179
420
  2301728
370
    35
100
AcDbVertex
100
AcDb2dVertex
 10
76.95480851874764
 20
-0.47396076905309
 30
0.0
  0
VERTEX
  5
91
330
8D
100
AcDbEntity
  8
Layer 1
 62
   179
420
  2301728
370
    35
100
AcDbVertex
100
AcDb2dVertex
 10
76.45480851874764
 20
-0.47396076905309
 30
0.0
  0
VERTEX
  5
92
330
8D
100
AcDbEntity
  8
Layer 1
 62
   179
420
  2301728
370
    35
100
AcDbVertex
100
AcDb2dVertex
 10
76.45480851874764
 20
-10.47396076905309
 30
0.0
  0
VERTEX
  5
93
330
8D
100
AcDbEntity
  8
Layer 1
 62
   179
420
  2301728
370
    35
100
AcDbVertex
100
AcDb2dVertex
 10
76.95480851874764
 20
-10.47396076905309
 30
0.0
  0
VERTEX
  5
94
330
8D
100
AcDbEntity
  8
Layer 1
 62
   179
420
  2301728
370
    35
100
AcDbVertex
100
AcDb2dVertex
 10
76.95480851874764
 20
-8.7100718801642
 30
0.0
  0
VERTEX
  5
95
330
8D
100
AcDbEntity
  8
Layer 1
 62
   179
420
  2301728
370
    35
100
AcDbVertex
100
AcDb2dVertex
 10
77.94668745212438
 20
-8.7100718801642
 30
0.0
  0
VERTEX
  5
96
330
8D
100
AcDbEntity
  8
Layer 1
 62
   179
420
  2301728
370
    35
100
AcDbVertex
100
AcDb2dVertex
 10
77.94668745212438
 20
-2.237849657941979
 30
0.0
  0
SEQEND
  5
97
330
8D
100
AcDbEntity
  8
Layer 1
 62
   179
420
  2301728
370
    35
  0
INSERT
  5
99
330
1F
100
AcDbEntity
  8
Layer 1
100
AcDbBlockReference
  2
block 2
 10
0.0
 20
0.0
 30
0.0
  0
INSERT
  5
B0
330
1F
100
AcDbEntity
  8
Layer 1
100
AcDbBlockReference
  2
block 3
 10
0.0
 20
0.0
 30
0.0
  0
POLYLINE
  5
B6
330
1F
100
AcDbEntity
  8
Layer 1
 62
   179
420
  2301728
370
    35
100
AcDb2dPolyline
 66
     1
 10
0.0
 20
0.0
 30
0.0
  0
VERTEX
  5
B7
330
B6
100
AcDbEntity
  8
Layer 1
 62
   179
420
  2301728
370
    35
100
AcDbVertex
100
AcDb2dVertex
 10
39.03089557337949
 20
-1.370726064783361
 30
0.0
  0
VERTEX
  5
B8
330
B6
100
AcDbEntity
  8
Layer 1
 62
   179
420
  2301728
370
    35
100
AcDbVertex
100
AcDb2dVertex
 10
39.03089557337949
 20
-1.299487864913569
 30
0.0
  0
VERTEX
  5
B9
330
B6
100
AcDbEntity
  8
Layer 1
 62
   179
420
  2301728
370
    35
100
AcDbVertex
100
AcDb2dVertex
 10
39.03089557337949
 20
-0.3614296183857909
 30
0.0
  0
VERTEX
  5
BA
330
B6
100
AcDbEntity
  8
Layer 1
 62
   179
420
  2301728
370
    35
100
AcDbVertex
100
AcDb2dVertex
 10
27.03089557337949
 20
-0.3614296183857909
 30
0.0
  0
VERTEX
  5
BB
330
B6
100
AcDbEntity
  8
Layer 1
 62
   179
420
  2301728
370
    35
100
AcDbVertex
100
AcDb2dVertex
 10
27.03089557337949
 20
-1.091154531580236
 30
0.0
  0
VERTEX
  5
BC
330
B6
100
AcDbEntity
  8
Layer 1
 62
   179
420
  2301728
370
    35
100
AcDbVertex
100
AcDb2dVertex
 10
27.03089557337949
 20
-1.370726064783361
 30
0.0
  0
VERTEX
  5
BD
330
B6
100
AcDbEntity
  8
Layer 1
 62
   179
420
  2301728
370
    35
100
AcDbVertex
100
AcDb2dVertex
 10
25.03209796595762
 20
-1.370726064783361
 30
0.0
  0
VERTEX
  5
BE
330
B6
100
AcDbEntity
  8
Layer 1
 62
   179
420
  2301728
370
    35
100
AcDbVertex
100
AcDb2dVertex
 10
25.03209796595762
 20
-3.329133996641
 30
0.0
  0
VERTEX
  5
BF
330
B6
100
AcDbEntity
  8
Layer 1
 62
   179
420
  2301728
370
    35
100
AcDbVertex
100
AcDb2dVertex
 10
25.03209796595762
 20
-5.039229618385788
 30
0.0
  0
VERTEX
  5
C0
330
B6
100
AcDbEntity
  8
Layer 1
 62
   179
420
  2301728
370
    35
100
AcDbVertex
100
AcDb2dVertex
 10
25.02660988815814
 20
-5.039229618385788
 30
0.0
  0
VERTEX
  5
C1
330
B6
100
AcDbEntity
  8
Layer 1
 62
   179
420
  2301728
370
    35
100
AcDbVertex
100
AcDb2dVertex
 10
24.01912655753747
 20
-5.038640561311139
 30
0.0
  0
VERTEX
  5
C2
330
B6
100
AcDbEntity
  8
Layer 1
 62
   179
420
  2301728
370
    35
100
AcDbVertex
100
AcDb2dVertex
 10
24.01912655753747
 20
-16.20922961838578
 30
0.0
  0
VERTEX
  5
C3
330
B6
100
AcDbEntity
  8
Layer 1
 62
   179
420
  2301728
370
    35
100
AcDbVertex
100
AcDb2dVertex
 10
25.02660988815814
 20
-16.20922961838578
 30
0.0
  0
VERTEX
  5
C4
330
B6
100
AcDbEntity
  8
Layer 1
 62
   179
420
  2301728
370
    35
100
AcDbVertex
100
AcDb2dVertex
 10
25.03209796595762
 20
-16.20922961838578
 30
0.0
  0
VERTEX
  5
C5
330
B6
100
AcDbEntity
  8
Layer 1
 62
   179
420
  2301728
370
    35
100
AcDbVertex
100
AcDb2dVertex
 10
25.03209796595762
 20
-17.05135621886322
 30
0.0
  0
VERTEX
  5
C6
330
B6
100
AcDbEntity
  8
Layer 1
 62
   179
420
  2301728
370
    35
100
AcDbVertex
100
AcDb2dVertex
 10
25.03209796595762
 20
-19.52072674295176
 30
0.0
  0
VERTEX
  5
C7
330
B6
100
AcDbEntity
  8
Layer 1
 62
   179
420
  2301728
370
    35
100
AcDbVertex
100
AcDb2dVertex
 10
41.0320945751156
 20
-19.52072674295176
 30
0.0
  0
VERTEX
  5
C8
330
B6
100
AcDbEntity
  8
Layer 1
 62
   179
420
  2301728
370
    35
100
AcDbVertex
100
AcDb2dVertex
 10
41.0320945751156
 20
-1.370726064783361
 30
0.0
  0
VERTEX
  5
C9
330
B6
100
AcDbEntity
  8
Layer 1
 62
   179
420
  2301728
370
    35
100
AcDbVertex
100
AcDb2dVertex
 10
39.03089557337949
 20
-1.370726064783361
 30
0.0
  0
SEQEND
  5
CA
330
B6
100
AcDbEntity
  8
Layer 1
 62
   179
420
  2301728
370
    35
  0
POLYLINE
  5
CB
330
1F
100
AcDbEntity
  8
Layer 1
 62
   179
420
  2301728
370
    35
100
AcDb2dPolyline
 66
     1
 10
0.0
 20
0.0
 30
0.0
  0
VERTEX
  5
CC
330
CB
100
AcDbEntity
  8
Layer 1
 62
   179
420
  2301728
370
    35
100
AcDbVertex
100
AcDb2dVertex
 10
24.78481381882221
 20
-13.73273235818614
 30
0.0
  0
VERTEX
  5
CD
330
CB
100
AcDbEntity
  8
Layer 1
 62
   179
420
  2301728
370
    35
100
AcDbVertex
100
AcDb2dVertex
 10
24.49481544642638
 20
-13.73273235818614
 30
0.0
  0
VERTEX
  5
CE
330
CB
100
AcDbEntity
  8
Layer 1
 62
   179
420
  2301728
370
    35
100
AcDbVertex
100
AcDb2dVertex
 10
24.49481544642638
 20
-7.232732358186139
 30
0.0
  0
VERTEX
  5
CF
330
CB
100
AcDbEntity
  8
Layer 1
 62
   179
420
  2301728
370
    35
100
AcDbVertex
100
AcDb2dVertex
 10
24.78481381882221
 20
-7.232732358186139
 30
0.0
  0
VERTEX
  5
D0
330
CB
100
AcDbEntity
  8
Layer 1
 62
   179
420
  2301728
370
    35
100
AcDbVertex
100
AcDb2dVertex
 10
24.78481381882221
 20
-13.73273235818614
 30
0.0
  0
SEQEND
  5
D1
330
CB
100
AcDbEntity
  8
Layer 1
 62
   179
420
  2301728
370
    35
  0
POLYLINE
  5
D2
330
1F
100
AcDbEntity
  8
Layer 1
 62
   179
420
  2301728
370
    35
100
AcDb2dPolyline
 66
     1
 10
0.0
 20
0.0
 30
0.0
  0
VERTEX
  5
D3
330
D2
100
AcDbEntity
  8
Layer 1
 62
   179
420
  2301728
370
    35
100
AcDbVertex
100
AcDb2dVertex
 10
36.31725760679963
 20
-1.120717693472594
 30
0.0
  0
VERTEX
  5
D4
330
D2
100
AcDbEntity
  8
Layer 1
 62
   179
420
  2301728
370
    35
100
AcDbVertex
100
AcDb2dVertex
 10
29.81725760679963
 20
-1.120717693472594
 30
0.0
  0
VERTEX
  5
D5
330
D2
100
AcDbEntity
  8
Layer 1
 62
   179
420
  2301728
370
    35
100
AcDbVertex
100
AcDb2dVertex
 10
29.81725760679963
 20
-0.8307193210767612
 30
0.0
  0
VERTEX
  5
D6
330
D2
100
AcDbEntity
  8
Layer 1
 62
   179
420
  2301728
370
    35
100
AcDbVertex
100
AcDb2dVertex
 10
36.31725760679963
 20
-0.8307193210767612
 30
0.0
  0
VERTEX
  5
D7
330
D2
100
AcDbEntity
  8
Layer 1
 62
   179
420
  2301728
370
    35
100
AcDbVertex
100
AcDb2dVertex
 10
36.31725760679963
 20
-1.120717693472594
 30
0.0
  0
SEQEND
  5
D8
330
D2
100
AcDbEntity
  8
Layer 1
 62
   179
420
  2301728
370
    35
  0
INSERT
  5
DA
330
1F
100
AcDbEntity
  8
Layer 1
100
AcDbBlockReference
  2
block 4
 10
0.0
 20
0.0
 30
0.0
  0
POLYLINE
  5
E1
330
1F
100
AcDbEntity
  8
Layer 1
 62
   179
420
  2301728
370
    35
100
AcDb2dPolyline
 66
     1
 10
0.0
 20
0.0
 30
0.0
  0
VERTEX
  5
E2
330
E1
100
AcDbEntity
  8
Layer 1
 62
   179
420
  2301728
370
    35
100
AcDbVertex
100
AcDb2dVertex
 10
41.58411764329819
 20
-1.370726064379268
 30
0.0
  0
VERTEX
  5
E3
330
E1
100
AcDbEntity
  8
Layer 1
 62
   179
420
  2301728
370
    35
100
AcDbVertex
100
AcDb2dVertex
 10
41.58411764248331
 20
-19.52072674254767
 30
0.0
  0
VERTEX
  5
E4
330
E1
100
AcDbEntity
  8
Layer 1
 62
   179
420
  2301728
370
    35
100
AcDbVertex
100
AcDb2dVertex
 10
57.58411425164129
 20
-19.52072674326602
 30
0.0
  0
VERTEX
  5
E5
330
E1
100
AcDbEntity
  8
Layer 1
 62
   179
420
  2301728
370
    35
100
AcDbVertex
100
AcDb2dVertex
 10
57.58411425175217
 20
-17.05135621917748
 30
0.0
  0
VERTEX
  5
E6
330
E1
100
AcDbEntity
  8
Layer 1
 62
   179
420
  2301728
370
    35
100
AcDbVertex
100
AcDb2dVertex
 10
57.58411425178997
 20
-16.20922961870004
 30
0.0
  0
VERTEX
  5
E7
330
E1
100
AcDbEntity
  8
Layer 1
 62
   179
420
  2301728
370
    35
100
AcDbVertex
100
AcDb2dVertex
 10
57.58960232958945
 20
-16.20922961870029
 30
0.0
  0
VERTEX
  5
E8
330
E1
100
AcDbEntity
  8
Layer 1
 62
   179
420
  2301728
370
    35
100
AcDbVertex
100
AcDb2dVertex
 10
58.59708566021011
 20
-16.20922961874551
 30
0.0
  0
VERTEX
  5
E9
330
E1
100
AcDbEntity
  8
Layer 1
 62
   179
420
  2301728
370
    35
100
AcDbVertex
100
AcDb2dVertex
 10
58.59708566071163
 20
-5.038640561670869
 30
0.0
  0
VERTEX
  5
EA
330
E1
100
AcDbEntity
  8
Layer 1
 62
   179
420
  2301728
370
    35
100
AcDbVertex
100
AcDb2dVertex
 10
57.58960233009093
 20
-5.039229618700296
 30
0.0
  0
VERTEX
  5
EB
330
E1
100
AcDbEntity
  8
Layer 1
 62
   179
420
  2301728
370
    35
100
AcDbVertex
100
AcDb2dVertex
 10
57.58411425229145
 20
-5.039229618700043
 30
0.0
  0
VERTEX
  5
EC
330
E1
100
AcDbEntity
  8
Layer 1
 62
   179
420
  2301728
370
    35
100
AcDbVertex
100
AcDb2dVertex
 10
57.58411425236823
 20
-3.329133996955256
 30
0.0
  0
VERTEX
  5
ED
330
E1
100
AcDbEntity
  8
Layer 1
 62
   179
420
  2301728
370
    35
100
AcDbVertex
100
AcDb2dVertex
 10
57.58411425245617
 20
-1.370726065097617
 30
0.0
  0
VERTEX
  5
EE
330
E1
100
AcDbEntity
  8
Layer 1
 62
   179
420
  2301728
370
    35
100
AcDbVertex
100
AcDb2dVertex
 10
55.5853166450343
 20
-1.37072606500788
 30
0.0
  0
VERTEX
  5
EF
330
E1
100
AcDbEntity
  8
Layer 1
 62
   179
420
  2301728
370
    35
100
AcDbVertex
100
AcDb2dVertex
 10
55.58531664504686
 20
-1.091154531804755
 30
0.0
  0
VERTEX
  5
F0
330
E1
100
AcDbEntity
  8
Layer 1
 62
   179
420
  2301728
370
    35
100
AcDbVertex
100
AcDb2dVertex
 10
55.5853166450796
 20
-0.3614296186102971
 30
0.0
  0
VERTEX
  5
F1
330
E1
100
AcDbEntity
  8
Layer 1
 62
   179
420
  2301728
370
    35
100
AcDbVertex
100
AcDb2dVertex
 10
43.5853166450796
 20
-0.3614296180715478
 30
0.0
  0
VERTEX
  5
F2
330
E1
100
AcDbEntity
  8
Layer 1
 62
   179
420
  2301728
370
    35
100
AcDbVertex
100
AcDb2dVertex
 10
43.58531664503749
 20
-1.299487864599327
 30
0.0
  0
VERTEX
  5
F3
330
E1
100
AcDbEntity
  8
Layer 1
 62
   179
420
  2301728
370
    35
100
AcDbVertex
100
AcDb2dVertex
 10
43.5853166450343
 20
-1.370726064469118
 30
0.0
  0
VERTEX
  5
F4
330
E1
100
AcDbEntity
  8
Layer 1
 62
   179
420
  2301728
370
    35
100
AcDbVertex
100
AcDb2dVertex
 10
41.58411764329819
 20
-1.370726064379268
 30
0.0
  0
SEQEND
  5
F5
330
E1
100
AcDbEntity
  8
Layer 1
 62
   179
420
  2301728
370
    35
  0
POLYLINE
  5
F6
330
1F
100
AcDbEntity
  8
Layer 1
 62
   179
420
  2301728
370
    35
100
AcDb2dPolyline
 66
     1
 10
0.0
 20
0.0
 30
0.0
  0
VERTEX
  5
F7
330
F6
100
AcDbEntity
  8
Layer 1
 62
   179
420
  2301728
370
    35
100
AcDbVertex
100
AcDb2dVertex
 10
57.83139839932839
 20
-7.232732358511485
 30
0.0
  0
VERTEX
  5
F8
330
F6
100
AcDbEntity
  8
Layer 1
 62
   179
420
  2301728
370
    35
100
AcDbVertex
100
AcDb2dVertex
 10
58.12139677172422
 20
-7.232732358524522
 30
0.0
  0
VERTEX
  5
F9
330
F6
100
AcDbEntity
  8
Layer 1
 62
   179
420
  2301728
370
    35
100
AcDbVertex
100
AcDb2dVertex
 10
58.12139677143239
 20
-13.73273235852452
 30
0.0
  0
VERTEX
  5
FA
330
F6
100
AcDbEntity
  8
Layer 1
 62
   179
420
  2301728
370
    35
100
AcDbVertex
100
AcDb2dVertex
 10
57.83139839903657
 20
-13.73273235851148
 30
0.0
  0
VERTEX
  5
FB
330
F6
100
AcDbEntity
  8
Layer 1
 62
   179
420
  2301728
370
    35
100
AcDbVertex
100
AcDb2dVertex
 10
57.83139839932839
 20
-7.232732358511485
 30
0.0
  0
SEQEND
  5
FC
330
F6
100
AcDbEntity
  8
Layer 1
 62
   179
420
  2301728
370
    35
  0
POLYLINE
  5
FD
330
1F
100
AcDbEntity
  8
Layer 1
 62
   179
420
  2301728
370
    35
100
AcDb2dPolyline
 66
     1
 10
0.0
 20
0.0
 30
0.0
  0
VERTEX
  5
FE
330
FD
100
AcDbEntity
  8
Layer 1
 62
   179
420
  2301728
370
    35
100
AcDbVertex
100
AcDb2dVertex
 10
46.29895461163839
 20
-0.8307193208843525
 30
0.0
  0
VERTEX
  5
FF
330
FD
100
AcDbEntity
  8
Layer 1
 62
   179
420
  2301728
370
    35
100
AcDbVertex
100
AcDb2dVertex
 10
52.79895461163839
 20
-0.830719321176174
 30
0.0
  0
VERTEX
  5
100
330
FD
100
AcDbEntity
  8
Layer 1
 62
   179
420
  2301728
370
    35
100
AcDbVertex
100
AcDb2dVertex
 10
52.79895461162538
 20
-1.120717693572007
 30
0.0
  0
VERTEX
  5
101
330
FD
100
AcDbEntity
  8
Layer 1
 62
   179
420
  2301728
370
    35
100
AcDbVertex
100
AcDb2dVertex
 10
46.29895461162538
 20
-1.120717693280186
 30
0.0
  0
VERTEX
  5
102
330
FD
100
AcDbEntity
  8
Layer 1
 62
   179
420
  2301728
370
    35
100
AcDbVertex
100
AcDb2dVertex
 10
46.29895461163839
 20
-0.8307193208843525
 30
0.0
  0
SEQEND
  5
103
330
FD
100
AcDbEntity
  8
Layer 1
 62
   179
420
  2301728
370
    35
  0
INSERT
  5
105
330
1F
100
AcDbEntity
  8
Layer 1
100
AcDbBlockReference
  2
block 5
 10
0.0
 20
0.0
 30
0.0
  0
INSERT
  5
10B
330
1F
100
AcDbEntity
  8
Layer 1
100
AcDbBlockReference
  2
block 6
 10
0.0
 20
0.0
 30
0.0
  0
POLYLINE
  5
11A
330
1F
100
AcDbEntity
  8
Layer 1
 62
   179
420
  2301728
370
    35
100
AcDb2dPolyline
 66
     1
 10
0.0
 20
0.0
 30
0.0
  0
VERTEX
  5
11B
330
11A
100
AcDbEntity
  8
Layer 1
 62
   179
420
  2301728
370
    35
100
AcDbVertex
100
AcDb2dVertex
 10
79.89113189656882
 20
-2.237849657941979
 30
0.0
  0
VERTEX
  5
11C
330
11A
100
AcDbEntity
  8
Layer 1
 62
   179
420
  2301728
370
    35
100
AcDbVertex
100
AcDb2dVertex
 10
78.89925296319208
 20
-2.237849657941979
 30
0.0
  0
VERTEX
  5
11D
330
11A
100
AcDbEntity
  8
Layer 1
 62
   179
420
  2301728
370
    35
100
AcDbVertex
100
AcDb2dVertex
 10
78.89925296319208
 20
-0.47396076905309
 30
0.0
  0
VERTEX
  5
11E
330
11A
100
AcDbEntity
  8
Layer 1
 62
   179
420
  2301728
370
    35
100
AcDbVertex
100
AcDb2dVertex
 10
78.39925296319208
 20
-0.47396076905309
 30
0.0
  0
VERTEX
  5
11F
330
11A
100
AcDbEntity
  8
Layer 1
 62
   179
420
  2301728
370
    35
100
AcDbVertex
100
AcDb2dVertex
 10
78.39925296319208
 20
-10.47396076905309
 30
0.0
  0
VERTEX
  5
120
330
11A
100
AcDbEntity
  8
Layer 1
 62
   179
420
  2301728
370
    35
100
AcDbVertex
100
AcDb2dVertex
 10
78.89925296319208
 20
-10.47396076905309
 30
0.0
  0
VERTEX
  5
121
330
11A
100
AcDbEntity
  8
Layer 1
 62
   179
420
  2301728
370
    35
100
AcDbVertex
100
AcDb2dVertex
 10
78.89925296319208
 20
-8.7100718801642
 30
0.0
  0
VERTEX
  5
122
330
11A
100
AcDbEntity
  8
Layer 1
 62
   179
420
  2301728
370
    35
100
AcDbVertex
100
AcDb2dVertex
 10
79.89113189656882
 20
-8.7100718801642
 30
0.0
  0
VERTEX
  5
123
330
11A
100
AcDbEntity
  8
Layer 1
 62
   179
420
  2301728
370
    35
100
AcDbVertex
100
AcDb2dVertex
 10
79.89113189656882
 20
-2.237849657941979
 30
0.0
  0
SEQEND
  5
124
330
11A
100
AcDbEntity
  8
Layer 1
 62
   179
420
  2301728
370
    35
  0
INSERT
  5
126
330
1F
100
AcDbEntity
  8
Layer 1
100
AcDbBlockReference
  2
block 7
 10
0.0
 20
0.0
 30
0.0
  0
POLYLINE
  5
135
330
1F
100
AcDbEntity
  8
Layer 1
 62
   179
420
  2301728
370
    35
100
AcDb2dPolyline
 66
     1
 10
0.0
 20
0.0
 30
0.0
  0
VERTEX
  5
136
330
135
100
AcDbEntity
  8
Layer 1
 62
   179
420
  2301728
370
    35
100
AcDbVertex
100
AcDb2dVertex
 10
78.39925296319208
 20
-17.32118299127531
 30
0.0
  0
VERTEX
  5
137
330
135
100
AcDbEntity
  8
Layer 1
 62
   179
420
  2301728
370
    35
100
AcDbVertex
100
AcDb2dVertex
 10
79.39113189656882
 20
-17.32118299127531
 30
0.0
  0
VERTEX
  5
138
330
135
100
AcDbEntity
  8
Layer 1
 62
   179
420
  2301728
370
    35
100
AcDbVertex
100
AcDb2dVertex
 10
79.39113189656882
 20
-19.0850718801642
 30
0.0
  0
VERTEX
  5
139
330
135
100
AcDbEntity
  8
Layer 1
 62
   179
420
  2301728
370
    35
100
AcDbVertex
100
AcDb2dVertex
 10
79.89113189656882
 20
-19.0850718801642
 30
0.0
  0
VERTEX
  5
13A
330
135
100
AcDbEntity
  8
Layer 1
 62
   179
420
  2301728
370
    35
100
AcDbVertex
100
AcDb2dVertex
 10
79.89113189656882
 20
-9.0850718801642
 30
0.0
  0
VERTEX
  5
13B
330
135
100
AcDbEntity
  8
Layer 1
 62
   179
420
  2301728
370
    35
100
AcDbVertex
100
AcDb2dVertex
 10
79.39113189656882
 20
-9.0850718801642
 30
0.0
  0
VERTEX
  5
13C
330
135
100
AcDbEntity
  8
Layer 1
 62
   179
420
  2301728
370
    35
100
AcDbVertex
100
AcDb2dVertex
 10
79.39113189656882
 20
-10.84896076905309
 30
0.0
  0
VERTEX
  5
13D
330
135
100
AcDbEntity
  8
Layer 1
 62
   179
420
  2301728
370
    35
100
AcDbVertex
100
AcDb2dVertex
 10
78.39925296319208
 20
-10.84896076905309
 30
0.0
  0
VERTEX
  5
13E
330
135
100
AcDbEntity
  8
Layer 1
 62
   179
420
  2301728
370
    35
100
AcDbVertex
100
AcDb2dVertex
 10
78.39925296319208
 20
-17.32118299127531
 30
0.0
  0
SEQEND
  5
13F
330
135
100
AcDbEntity
  8
Layer 1
 62
   179
420
  2301728
370
    35
  0
INSERT
  5
141
330
1F
100
AcDbEntity
  8
Layer 1
100
AcDbBlockReference
  2
block 8
 10
0.0
 20
0.0
 30
0.0
  0
POLYLINE
  5
150
330
1F
100
AcDbEntity
  8
Layer 1
 62
   179
420
  2301728
370
    35
100
AcDb2dPolyline
 66
     1
 10
0.0
 20
0.0
 30
0.0
  0
VERTEX
  5
151
330
150
100
AcDbEntity
  8
Layer 1
 62
   179
420
  2301728
370
    35
100
AcDbVertex
100
AcDb2dVertex
 10
76.45480851874764
 20
-17.32118299127531
 30
0.0
  0
VERTEX
  5
152
330
150
100
AcDbEntity
  8
Layer 1
 62
   179
420
  2301728
370
    35
100
AcDbVertex
100
AcDb2dVertex
 10
77.44668745212438
 20
-17.32118299127531
 30
0.0
  0
VERTEX
  5
153
330
150
100
AcDbEntity
  8
Layer 1
 62
   179
420
  2301728
370
    35
100
AcDbVertex
100
AcDb2dVertex
 10
77.44668745212438
 20
-19.0850718801642
 30
0.0
  0
VERTEX
  5
154
330
150
100
AcDbEntity
  8
Layer 1
 62
   179
420
  2301728
370
    35
100
AcDbVertex
100
AcDb2dVertex
 10
77.94668745212438
 20
-19.0850718801642
 30
0.0
  0
VERTEX
  5
155
330
150
100
AcDbEntity
  8
Layer 1
 62
   179
420
  2301728
370
    35
100
AcDbVertex
100
AcDb2dVertex
 10
77.94668745212438
 20
-9.0850718801642
 30
0.0
  0
VERTEX
  5
156
330
150
100
AcDbEntity
  8
Layer 1
 62
   179
420
  2301728
370
    35
100
AcDbVertex
100
AcDb2dVertex
 10
77.44668745212438
 20
-9.0850718801642
 30
0.0
  0
VERTEX
  5
157
330
150
100
AcDbEntity
  8
Layer 1
 62
   179
420
  2301728
370
    35
100
AcDbVertex
100
AcDb2dVertex
 10
77.44668745212438
 20
-10.84896076905309
 30
0.0
  0
VERTEX
  5
158
330
150
100
AcDbEntity
  8
Layer 1
 62
   179
420
  2301728
370
    35
100
AcDbVertex
100
AcDb2dVertex
 10
76.45480851874764
 20
-10.84896076905309
 30
0.0
  0
VERTEX
  5
159
330
150
100
AcDbEntity
  8
Layer 1
 62
   179
420
  2301728
370
    35
100
AcDbVertex
100
AcDb2dVertex
 10
76.45480851874764
 20
-17.32118299127531
 30
0.0
  0
SEQEND
  5
15A
330
150
100
AcDbEntity
  8
Layer 1
 62
   179
420
  2301728
370
    35
  0
INSERT
  5
15C
330
1F
100
AcDbEntity
  8
Layer 1
100
AcDbBlockReference
  2
block 9
 10
0.0
 20
0.0
 30
0.0
  0
ENDSEC
  0
SECTION
  2
OBJECTS
  0
DICTIONARY
  5
C
330
0
100
AcDbDictionary
281
     1
  3
ACAD_GROUP
350
D
  3
ACAD_LAYOUT
350
1A
  3
ACAD_MATERIAL
350
3B
  3
ACAD_MLEADERSTYLE
350
16C
  3
ACAD_MLINESTYLE
350
17
  3
ACAD_PLOTSETTINGS
350
19
  3
ACAD_PLOTSTYLENAME
350
E
  3
ACAD_TABLESTYLE
350
16B
  3
ACAD_VISUALSTYLE
350
2A
  0
SUN
  5
3F
330
29
100
AcDbSun
 90
        1
290
     0
 63
     7
421
 16777215
 40
1.0
291
     1
 91
  2455826
 92
 54000000
292
     0
 70
     2
 71
   256
280
     1
  0
DICTIONARY
  5
D
102
{ACAD_REACTORS
330
C
102
}
330
C
100
AcDbDictionary
281
     1
  0
DICTIONARY
  5
1A
102
{ACAD_REACTORS
330
C
102
}
330
C
100
AcDbDictionary
281
     1
  3
Layout1
350
1E
  3
Layout2
350
26
  3
Model
350
22
  0
DICTIONARY
  5
3B
102
{ACAD_REACTORS
330
C
102
}
330
C
100
AcDbDictionary
281
     1
  3
ByBlock
350
3D
  3
ByLayer
350
3C
  3
Global
350
3E
  0
DICTIONARY
  5
16C
102
{ACAD_REACTORS
330
C
102
}
330
C
100
AcDbDictionary
281
     1
  0
DICTIONARY
  5
17
102
{ACAD_REACTORS
330
C
102
}
330
C
100
AcDbDictionary
281
     1
  3
Standard
350
18
  0
DICTIONARY
  5
19
102
{ACAD_REACTORS
330
C
102
}
330
C
100
AcDbDictionary
281
     1
  0
ACDBDICTIONARYWDFLT
  5
E
102
{ACAD_REACTORS
330
C
102
}
330
C
100
AcDbDictionary
281
     1
  3
Normal
350
F
100
AcDbDictionaryWithDefault
340
F
  0
DICTIONARY
  5
16B
102
{ACAD_REACTORS
330
C
102
}
330
C
100
AcDbDictionary
281
     1
  0
DICTIONARY
  5
2A
102
{ACAD_REACTORS
330
C
102
}
330
C
100
AcDbDictionary
281
     1
  3
2dWireframe
350
2F
  3
3D Hidden
350
31
  3
3dWireframe
350
30
  3
Basic
350
32
  3
Brighten
350
36
  3
ColorChange
350
3A
  3
Conceptual
350
34
  3
Dim
350
35
  3
Facepattern
350
39
  3
Flat
350
2B
  3
FlatWithEdges
350
2C
  3
Gouraud
350
2D
  3
GouraudWithEdges
350
2E
  3
Linepattern
350
38
  3
Realistic
350
33
  3
Thicken
350
37
  0
LAYOUT
  5
1E
102
{ACAD_REACTORS
330
1A
102
}
330
1A
100
AcDbPlotSettings
  1

  2
none_device
  4

  6

 40
0.0
 41
0.0
 42
0.0
 43
0.0
 44
0.0
 45
0.0
 46
0.0
 47
0.0
 48
0.0
 49
0.0
140
0.0
141
0.0
142
1.0
143
1.0
 70
   688
 72
     0
 73
     0
 74
     5
  7

 75
    16
 76
     0
 77
     2
 78
   300
147
1.0
148
0.0
149
0.0
100
AcDbLayout
  1
Layout1
 70
     1
 71
     1
 10
0.0
 20
0.0
 11
12.0
 21
9.0
 12
0.0
 22
0.0
 32
0.0
 14
1.000000000000000E+20
 24
1.000000000000000E+20
 34
1.000000000000000E+20
 15
-1.000000000000000E+20
 25
-1.000000000000000E+20
 35
-1.000000000000000E+20
146
0.0
 13
0.0
 23
0.0
 33
0.0
 16
1.0
 26
0.0
 36
0.0
 17
0.0
 27
1.0
 37
0.0
 76
     0
330
1B
  0
LAYOUT
  5
26
102
{ACAD_REACTORS
330
1A
102
}
330
1A
100
AcDbPlotSettings
  1

  2
none_device
  4

  6

 40
0.0
 41
0.0
 42
0.0
 43
0.0
 44
0.0
 45
0.0
 46
0.0
 47
0.0
 48
0.0
 49
0.0
140
0.0
141
0.0
142
1.0
143
1.0
 70
   688
 72
     0
 73
     0
 74
     5
  7

 75
    16
 76
     0
 77
     2
 78
   300
147
1.0
148
0.0
149
0.0
100
AcDbLayout
  1
Layout2
 70
     1
 71
     2
 10
0.0
 20
0.0
 11
0.0
 21
0.0
 12
0.0
 22
0.0
 32
0.0
 14
0.0
 24
0.0
 34
0.0
 15
0.0
 25
0.0
 35
0.0
146
0.0
 13
0.0
 23
0.0
 33
0.0
 16
1.0
 26
0.0
 36
0.0
 17
0.0
 27
1.0
 37
0.0
 76
     0
330
23
  0
LAYOUT
  5
22
102
{ACAD_REACTORS
330
1A
102
}
330
1A
100
AcDbPlotSettings
  1

  2
none_device
  4

  6

 40
0.0
 41
0.0
 42
0.0
 43
0.0
 44
0.0
 45
0.0
 46
0.0
 47
0.0
 48
0.0
 49
0.0
140
0.0
141
0.0
142
1.0
143
1.0
 70
  1712
 72
     0
 73
     0
 74
     0
  7

 75
     0
 76
     0
 77
     2
 78
   300
147
1.0
148
0.0
149
0.0
100
AcDbLayout
  1
Model
 70
     1
 71
     0
 10
0.0
 20
0.0
 11
12.0
 21
9.0
 12
0.0
 22
0.0
 32
0.0
 14
1.000000000000000E+20
 24
1.000000000000000E+20
 34
1.000000000000000E+20
 15
-1.000000000000000E+20
 25
-1.000000000000000E+20
 35
-1.000000000000000E+20
146
0.0
 13
0.0
 23
0.0
 33
0.0
 16
1.0
 26
0.0
 36
0.0
 17
0.0
 27
1.0
 37
0.0
 76
     0
330
1F
331
29
  0
MATERIAL
  5
3D
102
{ACAD_REACTORS
330
3B
102
}
330
3B
100
AcDbMaterial
  1
ByBlock
 72
     1
 94
      127
  0
MATERIAL
  5
3C
102
{ACAD_REACTORS
330
3B
102
}
330
3B
100
AcDbMaterial
  1
ByLayer
 72
     1
 94
      127
  0
MATERIAL
  5
3E
102
{ACAD_REACTORS
330
3B
102
}
330
3B
100
AcDbMaterial
  1
Global
 72
     1
 94
      127
  0
MLINESTYLE
  5
18
102
{ACAD_REACTORS
330
17
102
}
330
17
100
AcDbMlineStyle
  2
Standard
 70
     0
  3

 62
   256
 51
90.0
 52
90.0
 71
     2
 49
0.5
 62
   256
  6
BYLAYER
 49
-0.5
 62
   256
  6
BYLAYER
  0
ACDBPLACEHOLDER
  5
F
102
{ACAD_REACTORS
330
E
102
}
330
E
  0
VISUALSTYLE
  5
2F
102
{ACAD_REACTORS
330
2A
102
}
330
2A
100
AcDbVisualStyle
  2
2dWireframe
 70
     4
177
     2
291
     0
 71
     0
176
     1
 72
     2
176
     1
 73
     0
176
     1
 90
        0
176
     1
 40
-0.6
176
     1
 41
-30.0
176
     1
 62
     5
 63
     7
421
 16777215
176
     1
 74
     1
176
     1
 91
        4
176
     1
 64
     7
176
     1
 65
   257
176
     1
 75
     1
176
     1
175
     1
176
     1
 42
1.0
176
     1
 92
        0
176
     1
 66
   257
176
     1
 43
1.0
176
     1
 76
     1
176
     1
 77
     6
176
     1
 78
     2
176
     1
 67
     7
176
     1
 79
     5
176
     1
170
     0
176
     1
171
     0
176
     1
290
     0
176
     1
 93
        1
176
     1
 44
0.0
176
     1
173
     0
176
     1
  0
VISUALSTYLE
  5
31
102
{ACAD_REACTORS
330
2A
102
}
330
2A
100
AcDbVisualStyle
  2
3D Hidden
 70
     6
177
     2
291
     0
 71
     1
176
     1
 72
     2
176
     1
 73
     2
176
     1
 90
        0
176
     1
 40
-0.6
176
     1
 41
-30.0
176
     1
 62
     5
 63
     7
421
 16777215
176
     1
 74
     2
176
     1
 91
        2
176
     1
 64
     7
176
     1
 65
   257
176
     1
 75
     2
176
     1
175
     1
176
     1
 42
40.0
176
     1
 92
        0
176
     1
 66
   257
176
     1
 43
1.0
176
     1
 76
     1
176
     1
 77
     6
176
     1
 78
     2
176
     1
 67
     7
176
     1
 79
     3
176
     1
170
     0
176
     1
171
     0
176
     1
290
     0
176
     1
 93
        1
176
     1
 44
0.0
176
     1
173
     0
176
     1
  0
VISUALSTYLE
  5
30
102
{ACAD_REACTORS
330
2A
102
}
330
2A
100
AcDbVisualStyle
  2
3dWireframe
 70
     5
177
     2
291
     0
 71
     0
176
     1
 72
     2
176
     1
 73
     0
176
     1
 90
        0
176
     1
 40
-0.6
176
     1
 41
-30.0
176
     1
 62
     5
 63
     7
421
 16777215
176
     1
 74
     1
176
     1
 91
        4
176
     1
 64
     7
176
     1
 65
   257
176
     1
 75
     1
176
     1
175
     1
176
     1
 42
1.0
176
     1
 92
        0
176
     1
 66
   257
176
     1
 43
1.0
176
     1
 76
     1
176
     1
 77
     6
176
     1
 78
     2
176
     1
 67
     7
176
     1
 79
     5
176
     1
170
     0
176
     1
171
     0
176
     1
290
     0
176
     1
 93
        1
176
     1
 44
0.0
176
     1
173
     0
176
     1
  0
VISUALSTYLE
  5
32
102
{ACAD_REACTORS
330
2A
102
}
330
2A
100
AcDbVisualStyle
  2
Basic
 70
     7
177
     2
291
     1
 71
     1
176
     1
 72
     0
176
     1
 73
     1
176
     1
 90
        0
176
     1
 40
-0.6
176
     1
 41
-30.0
176
     1
 62
     5
 63
     7
421
 16777215
176
     1
 74
     0
176
     1
 91
        4
176
     1
 64
     7
176
     1
 65
   257
176
     1
 75
     1
176
     1
175
     1
176
     1
 42
1.0
176
     1
 92
        8
176
     1
 66
     7
176
     1
 43
1.0
176
     1
 76
     1
176
     1
 77
     6
176
     1
 78
     2
176
     1
 67
     7
176
     1
 79
     5
176
     1
170
     0
176
     1
171
     0
176
     1
290
     0
176
     1
 93
        1
176
     1
 44
0.0
176
     1
173
     0
176
     1
  0
VISUALSTYLE
  5
36
102
{ACAD_REACTORS
330
2A
102
}
330
2A
100
AcDbVisualStyle
  2
Brighten
 70
    12
177
     2
291
     1
 71
     2
176
     1
 72
     2
176
     1
 73
     0
176
     1
 90
        0
176
     1
 40
-0.6
176
     1
 41
-30.0
176
     1
 62
     5
 63
     7
421
 16777215
176
     1
 74
     1
176
     1
 91
        4
176
     1
 64
     7
176
     1
 65
   257
176
     1
 75
     1
176
     1
175
     1
176
     1
 42
1.0
176
     1
 92
        8
176
     1
 66
     7
176
     1
 43
1.0
176
     1
 76
     1
176
     1
 77
     6
176
     1
 78
     2
176
     1
 67
     7
176
     1
 79
     5
176
     1
170
     0
176
     1
171
     0
176
     1
290
     0
176
     1
 93
        1
176
     1
 44
50.0
176
     1
173
     0
176
     1
  0
VISUALSTYLE
  5
3A
102
{ACAD_REACTORS
330
2A
102
}
330
2A
100
AcDbVisualStyle
  2
ColorChange
 70
    16
177
     2
291
     1
 71
     2
176
     1
 72
     2
176
     1
 73
     3
176
     1
 90
        0
176
     1
 40
-0.6
176
     1
 41
-30.0
176
     1
 62
     5
 63
     8
421
  8421504
176
     1
 74
     1
176
     1
 91
        4
176
     1
 64
     7
176
     1
 65
   257
176
     1
 75
     1
176
     1
175
     1
176
     1
 42
1.0
176
     1
 92
        8
176
     1
 66
     8
424
  8421504
176
     1
 43
1.0
176
     1
 76
     1
176
     1
 77
     6
176
     1
 78
     2
176
     1
 67
     7
176
     1
 79
     5
176
     1
170
     0
176
     1
171
     0
176
     1
290
     0
176
     1
 93
        1
176
     1
 44
0.0
176
     1
173
     0
176
     1
  0
VISUALSTYLE
  5
34
102
{ACAD_REACTORS
330
2A
102
}
330
2A
100
AcDbVisualStyle
  2
Conceptual
 70
     9
177
     2
291
     0
 71
     3
176
     1
 72
     2
176
     1
 73
     0
176
     1
 90
        0
176
     1
 40
-0.6
176
     1
 41
-30.0
176
     1
 62
     5
 63
     7
421
 16777215
176
     1
 74
     2
176
     1
 91
        2
176
     1
 64
     7
176
     1
 65
   257
176
     1
 75
     1
176
     1
175
     1
176
     1
 42
40.0
176
     1
 92
        8
176
     1
 66
     7
176
     1
 43
1.0
176
     1
 76
     1
176
     1
 77
     6
176
     1
 78
     2
176
     1
 67
     7
176
     1
 79
     3
176
     1
170
     0
176
     1
171
     0
176
     1
290
     0
176
     1
 93
        1
176
     1
 44
0.0
176
     1
173
     0
176
     1
  0
VISUALSTYLE
  5
35
102
{ACAD_REACTORS
330
2A
102
}
330
2A
100
AcDbVisualStyle
  2
Dim
 70
    11
177
     2
291
     1
 71
     2
176
     1
 72
     2
176
     1
 73
     0
176
     1
 90
        0
176
     1
 40
-0.6
176
     1
 41
-30.0
176
     1
 62
     5
 63
     7
421
 16777215
176
     1
 74
     1
176
     1
 91
        4
176
     1
 64
     7
176
     1
 65
   257
176
     1
 75
     1
176
     1
175
     1
176
     1
 42
1.0
176
     1
 92
        8
176
     1
 66
     7
176
     1
 43
1.0
176
     1
 76
     1
176
     1
 77
     6
176
     1
 78
     2
176
     1
 67
     7
176
     1
 79
     5
176
     1
170
     0
176
     1
171
     0
176
     1
290
     0
176
     1
 93
        1
176
     1
 44
-50.0
176
     1
173
     0
176
     1
  0
VISUALSTYLE
  5
39
102
{ACAD_REACTORS
330
2A
102
}
330
2A
100
AcDbVisualStyle
  2
Facepattern
 70
    15
177
     2
291
     1
 71
     2
176
     1
 72
     2
176
     1
 73
     0
176
     1
 90
        0
176
     1
 40
-0.6
176
     1
 41
-30.0
176
     1
 62
     5
 63
     7
421
 16777215
176
     1
 74
     1
176
     1
 91
        4
176
     1
 64
     7
176
     1
 65
   257
176
     1
 75
     1
176
     1
175
     1
176
     1
 42
1.0
176
     1
 92
        8
176
     1
 66
     7
176
     1
 43
1.0
176
     1
 76
     1
176
     1
 77
     6
176
     1
 78
     2
176
     1
 67
     7
176
     1
 79
     5
176
     1
170
     0
176
     1
171
     0
176
     1
290
     0
176
     1
 93
        1
176
     1
 44
0.0
176
     1
173
     0
176
     1
  0
VISUALSTYLE
  5
2B
102
{ACAD_REACTORS
330
2A
102
}
330
2A
100
AcDbVisualStyle
  2
Flat
 70
     0
177
     2
291
     1
 71
     2
176
     1
 72
     1
176
     1
 73
     1
176
     1
 90
        2
176
     1
 40
-0.6
176
     1
 41
30.0
176
     1
 62
     5
 63
     7
421
 16777215
176
     1
 74
     0
176
     1
 91
        4
176
     1
 64
     7
176
     1
 65
   257
176
     1
 75
     1
176
     1
175
     1
176
     1
 42
1.0
176
     1
 92
        8
176
     1
 66
     7
176
     1
 43
1.0
176
     1
 76
     1
176
     1
 77
     6
176
     1
 78
     2
176
     1
 67
     7
176
     1
 79
     5
176
     1
170
     0
176
     1
171
     0
176
     1
290
     0
176
     1
 93
       13
176
     1
 44
0.0
176
     1
173
     0
176
     1
  0
VISUALSTYLE
  5
2C
102
{ACAD_REACTORS
330
2A
102
}
330
2A
100
AcDbVisualStyle
  2
FlatWithEdges
 70
     1
177
     2
291
     1
 71
     2
176
     1
 72
     1
176
     1
 73
     1
176
     1
 90
        2
176
     1
 40
-0.6
176
     1
 41
30.0
176
     1
 62
     5
 63
     7
421
 16777215
176
     1
 74
     1
176
     1
 91
        4
176
     1
 64
     7
176
     1
 65
   257
176
     1
 75
     1
176
     1
175
     1
176
     1
 42
1.0
176
     1
 92
        0
176
     1
 66
   257
176
     1
 43
1.0
176
     1
 76
     1
176
     1
 77
     6
176
     1
 78
     2
176
     1
 67
     7
176
     1
 79
     5
176
     1
170
     0
176
     1
171
     0
176
     1
290
     0
176
     1
 93
       13
176
     1
 44
0.0
176
     1
173
     0
176
     1
  0
VISUALSTYLE
  5
2D
102
{ACAD_REACTORS
330
2A
102
}
330
2A
100
AcDbVisualStyle
  2
Gouraud
 70
     2
177
     2
291
     1
 71
     2
176
     1
 72
     2
176
     1
 73
     1
176
     1
 90
        2
176
     1
 40
-0.6
176
     1
 41
30.0
176
     1
 62
     5
 63
     7
421
 16777215
176
     1
 74
     0
176
     1
 91
        4
176
     1
 64
     7
176
     1
 65
   257
176
     1
 75
     1
176
     1
175
     1
176
     1
 42
1.0
176
     1
 92
        0
176
     1
 66
     7
176
     1
 43
1.0
176
     1
 76
     1
176
     1
 77
     6
176
     1
 78
     2
176
     1
 67
     7
176
     1
 79
     5
176
     1
170
     0
176
     1
171
     0
176
     1
290
     0
176
     1
 93
       13
176
     1
 44
0.0
176
     1
173
     0
176
     1
  0
VISUALSTYLE
  5
2E
102
{ACAD_REACTORS
330
2A
102
}
330
2A
100
AcDbVisualStyle
  2
GouraudWithEdges
 70
     3
177
     2
291
     1
 71
     2
176
     1
 72
     2
176
     1
 73
     1
176
     1
 90
        2
176
     1
 40
-0.6
176
     1
 41
30.0
176
     1
 62
     5
 63
     7
421
 16777215
176
     1
 74
     1
176
     1
 91
        4
176
     1
 64
     7
176
     1
 65
   257
176
     1
 75
     1
176
     1
175
     1
176
     1
 42
1.0
176
     1
 92
        0
176
     1
 66
   257
176
     1
 43
1.0
176
     1
 76
     1
176
     1
 77
     6
176
     1
 78
     2
176
     1
 67
     7
176
     1
 79
     5
176
     1
170
     0
176
     1
171
     0
176
     1
290
     0
176
     1
 93
       13
176
     1
 44
0.0
176
     1
173
     0
176
     1
  0
VISUALSTYLE
  5
38
102
{ACAD_REACTORS
330
2A
102
}
330
2A
100
AcDbVisualStyle
  2
Linepattern
 70
    14
177
     2
291
     1
 71
     2
176
     1
 72
     2
176
     1
 73
     0
176
     1
 90
        0
176
     1
 40
-0.6
176
     1
 41
-30.0
176
     1
 62
     5
 63
     7
421
 16777215
176
     1
 74
     1
176
     1
 91
        4
176
     1
 64
     7
176
     1
 65
   257
176
     1
 75
     7
176
     1
175
     7
176
     1
 42
1.0
176
     1
 92
        8
176
     1
 66
     7
176
     1
 43
1.0
176
     1
 76
     1
176
     1
 77
     6
176
     1
 78
     2
176
     1
 67
     7
176
     1
 79
     5
176
     1
170
     0
176
     1
171
     0
176
     1
290
     0
176
     1
 93
        1
176
     1
 44
0.0
176
     1
173
     0
176
     1
  0
VISUALSTYLE
  5
33
102
{ACAD_REACTORS
330
2A
102
}
330
2A
100
AcDbVisualStyle
  2
Realistic
 70
     8
177
     2
291
     0
 71
     2
176
     1
 72
     2
176
     1
 73
     0
176
     1
 90
        0
176
     1
 40
-0.6
176
     1
 41
-30.0
176
     1
 62
     5
 63
     7
421
 16777215
176
     1
 74
     1
176
     1
 91
        0
176
     1
 64
     7
176
     1
 65
   257
176
     1
 75
     1
176
     1
175
     1
176
     1
 42
1.0
176
     1
 92
        8
176
     1
 66
     8
424
  7895160
176
     1
 43
1.0
176
     1
 76
     1
176
     1
 77
     6
176
     1
 78
     2
176
     1
 67
     7
176
     1
 79
     5
176
     1
170
     0
176
     1
171
     0
176
     1
290
     0
176
     1
 93
       13
176
     1
 44
0.0
176
     1
173
     0
176
     1
  0
VISUALSTYLE
  5
37
102
{ACAD_REACTORS
330
2A
102
}
330
2A
100
AcDbVisualStyle
  2
Thicken
 70
    13
177
     2
291
     1
 71
     2
176
     1
 72
     2
176
     1
 73
     0
176
     1
 90
        0
176
     1
 40
-0.6
176
     1
 41
-30.0
176
     1
 62
     5
 63
     7
421
 16777215
176
     1
 74
     1
176
     1
 91
        4
176
     1
 64
     7
176
     1
 65
   257
176
     1
 75
     1
176
     1
175
     1
176
     1
 42
1.0
176
     1
 92
       12
176
     1
 66
     7
176
     1
 43
1.0
176
     1
 76
     1
176
     1
 77
     6
176
     1
 78
     2
176
     1
 67
     7
176
     1
 79
     5
176
     1
170
     0
176
     1
171
     0
176
     1
290
     0
176
     1
 93
        1
176
     1
 44
0.0
176
     1
173
     0
176
     1
  0
ENDSEC
  0
EOF
